<svg width="170mm" height="160mm" version="1.1" viewBox="0 0 170 160" xmlns="http://www.w3.org/2000/svg">
<rect width="100%" height="100%" fill="#1E1E1E"/>
 <g transform="translate(-25 -27.5)">
  <g fill="none" stroke="#dac3c3" stroke-width=".3">
   <path d="m79.092 30v155z"/>
   <path d="m139.09 30v155z"/>
   <path d="m190 46.783h-160z"/>
  </g>
  <g stroke-width=".3">
   <g transform="translate(5 12)" fill="#fff" aria-label="Character">
    <path d="m38.157 26.352q0-.55673.25356-.9977t.68902-.68351q.43822-.24253.93706-.24253.15158 0 .25356.01929.10473.01654.24805.06063l-.05512.23151q-.31695-.08544-.50987-.08544-.70004 0-1.141.44924-.43822.44648-.43822 1.1768 0 .82958.44648 1.2485.44924.41617 1.2623.41617.2701 0 .66146-.11851l-.01654.20395q-.30317.113-.71107.113-.86816 0-1.3753-.47404-.50436-.47404-.50436-1.3174z"/>
    <path d="m41.329 24.186.32522-.01102-.0083.30868q-.01929.96463-.01929 1.265h.0055q.22324-.19017.4768-.28939.25632-.09922.49334-.09922.4327 0 .67799.21222.24805.20946.24805.73036v.19844q-.0055.09371-.0055.30868 0 .65043.0055 1.2595h-.27561q.05512-.71658.05512-1.7556 0-.38861-.19017-.55673-.18741-.17088-.54295-.17088-.47129 0-.94809.35553 0 1.6977.02205 2.1277h-.26458q.02205-.82682.02205-2.0615 0-1.1989-.07717-1.8218z"/>
    <path d="m46.003 27.788q-.36656.35002-.92604.35002-.41892 0-.64492-.18466-.226-.18741-.226-.5457 0-.44924.38585-.69178.38861-.24253 1.4111-.2508.01102-.09922.01102-.19568 0-.37758-.21497-.52365-.21497-.14883-.58704-.14883-.44097 0-.88746.113l.03583-.23702q.42168-.113.86265-.113.4768 0 .74414.19844.26734.19568.26734.65319 0 .14883-.01654.43546-.01378.28388-.01378.565 0 .40514.06339.85714l-.22049.01102q-.02756-.17088-.02756-.29214zm.01102-1.13q-.7276 0-1.1438.16812-.41617.16536-.41617.60634 0 .49058.65043.49058.29766 0 .52641-.08819.23151-.0882.38309-.26734z"/>
    <path d="m48.561 25.694q-.22049-.09095-.46302-.09095-.25632 0-.44648.14607-.18741.14607-.27561.42444 0 1.2954.02205 1.8962h-.2701q.02756-.75516.02756-1.356 0-.62563-.10749-1.2568l.24254-.06339q.06339.32797.0689.44648h.03307q.17088-.24254.34451-.36105.17639-.11851.36656-.11851.21773 0 .52917.09095z"/>
    <path d="m50.606 27.788q-.36656.35002-.92604.35002-.41892 0-.64492-.18466-.226-.18741-.226-.5457 0-.44924.38585-.69178.38861-.24253 1.4111-.2508.01102-.09922.01102-.19568 0-.37758-.21497-.52365-.21497-.14883-.58704-.14883-.44097 0-.88746.113l.03583-.23702q.42168-.113.86265-.113.4768 0 .74414.19844.26734.19568.26734.65319 0 .14883-.01654.43546-.01378.28388-.01378.565 0 .40514.06339.85714l-.22049.01102q-.02756-.17088-.02756-.29214zm.01102-1.13q-.7276 0-1.1438.16812-.41617.16536-.41617.60634 0 .49058.65043.49058.29766 0 .52641-.08819.23151-.0882.38309-.26734z"/>
    <path d="m51.893 26.708q0 .55948.33624.88746.339.32797.88194.32797.13229 0 .24805-.02205.11576-.0248.28388-.07993v.19844q-.09371.05788-.27285.08819-.17639.03032-.3197.03032-.62563 0-1.0115-.37483-.38309-.37483-.38309-.96463 0-.44924.18466-.76068.18741-.31144.48782-.49334.30317-.18466.73863-.18466.28388 0 .45751.07441l-.04685.27561q-.1819-.05788-.30592-.08544-.12127-.02756-.2508-.02756-.26458 0-.50987.14607-.24529.14607-.38309.39412-.13505.24529-.13505.57051z"/>
    <path d="m55.691 28.053q-.23978.07166-.41066.07166-.48231 0-.62287-.26734-.14056-.2701-.14056-.86541 0-.72209.0055-1.2871-.16536 0-.51263.01654l.01102-.226q.30592.01654.52641.01654 0-.30041.03307-.7965l.24253-.01654q-.05237.63665-.05237.81304.23978 0 .88746-.02756l-.01654.23702q-.56775-.01654-.88746-.01654-.01654.48231-.01654 1.1355 0 .71658.15434.89848.1571.17914.44373.17914.07993 0 .16536-.01378.08544-.01654.21222-.04961z"/>
    <path d="m56.471 26.691q0 .53468.32797.8847.33073.34726.89021.34726.42444 0 .70556-.08544l-.03859.22049q-.08544.02756-.26458.05236-.17914.02756-.38034.02756-.73036 0-1.0997-.3831-.36656-.38585-.36656-.95084 0-.30041.07166-.55673.07441-.25632.22048-.46853.34727-.452.89297-.452.49058 0 .76068.31695.27285.31695.27285.78272 0 .15158-.01102.24253zm.01654-.19568h1.7281q0-.46578-.20119-.71658-.20119-.2508-.59531-.2508-.36656 0-.61736.24805-.24805.24529-.31419.71934z"/>
    <path d="m60.66 25.694q-.22049-.09095-.46302-.09095-.25632 0-.44648.14607-.18741.14607-.27561.42444 0 1.2954.02205 1.8962h-.2701q.02756-.75516.02756-1.356 0-.62563-.10749-1.2568l.24254-.06339q.06339.32797.0689.44648h.03307q.17088-.24254.34451-.36105.17639-.11851.36656-.11851.21773 0 .52917.09095z"/>
   </g>
   <g transform="translate(5 12)" fill="#fff" aria-label="Number Assigned  (Decimal)">
    <path d="m84.075 21.672q1.1135 1.5903 1.469 2.1552t.37207.6146h.01102q-.02756-.6146-.02756-1.2127v-.7469q0-.74965-.01654-1.1796h.24254q-.03307.63114-.03307 1.808 0 .53192.0055.94258.0055.4079.02756.8406h-.1571q-.0055 0-.37483-.57602-.36931-.57602-.6587-.9977l-.63114-.92053-.20671-.30317q-.1378-.19844-.20946-.30592-.07166-.10749-.09922-.15985h-.01103q.02205.65319.02205 1.1906 0 .2508-.0055.71382l-.0028.62287q0 .44924.01378.73587h-.24253q.04685-1.0638.04685-1.8907 0-.83509-.04685-1.7005h.25907q0 .0083.10197.15158z"/>
    <path d="m89.138 24.9q-.03307-.15434-.03307-.26458h-.01102q-.15985.12954-.39963.226-.23978.09646-.5209.09646-.57602 0-.76068-.2508-.1819-.25356-.1819-.68626l.0028-.35002q0-.06615.0028-.18741.0055-.15158.0055-.40514 0-.35278-.03307-.79099l.29214-.01654q-.02205.48231-.02205 1.0997 0 .49609.02756.80477.02756.30868.17088.4327.14607.12402.51263.12402.57602 0 .89848-.30592 0-1.6509-.02205-2.1387l.25907-.01654-.0028.18741q-.01378.82682-.01378 1.3119 0 .57326.04961 1.1245z"/>
    <path d="m90.475 22.59h.0055q.37207-.40514.79099-.40514.3638 0 .58704.10473.22324.10197.2949.30041h.02205q.2067-.19844.41892-.30041.21222-.10473.41066-.10473.46302 0 .69453.2067.23151.20671.23151.70831l-.0055.27285-.0055.14883.0028.45751q.0083.38034.0083.91502h-.26734q.06339-.75241.06339-1.8355 0-.35278-.16536-.49885-.16536-.14883-.57878-.14883-.19017 0-.39136.10473-.19844.10473-.3831.30592-.01102.22049-.01102.70004 0 .45751.01654 1.3725h-.2701q.04961-.70556.04961-1.7225 0-.48507-.18741-.62287-.18741-.1378-.55673-.1378-.38585 0-.79099.37207-.0055.16812-.0055.62012 0 .49609.0083 1.1989l.0028.29214h-.25356q.04961-1.017.04961-1.356 0-.55122-.11024-1.2623l.2701-.05788z"/>
    <path d="m95.854 24.963q-.25907 0-.46026-.05512-.19844-.05237-.31419-.12127h-.01102l-.04961.10749h-.20395q.02756-.78272.02756-2.0615 0-1.0666-.0441-1.8052l.30317-.027563q-.02756.28112-.02756 1.5406h.01102q.12678-.15434.36656-.25631.23978-.10473.52641-.10473.55122 0 .8599.37758.30868.37483.30868.92604 0 .64492-.3638 1.0638-.36105.41617-.9288.41617zm.04961-2.5631q-.56775 0-.8406.39963 0 1.0363.03307 1.7722.28388.19292.70556.19292.55122 0 .8158-.35829.26458-.36105.26458-.87368 0-.56224-.27285-.84612-.27285-.28663-.70556-.28663z"/>
    <path d="m98.062 23.516q0 .53468.32797.8847.33073.34726.89021.34726.42444 0 .70556-.08544l-.03859.22049q-.08544.02756-.26458.05236-.17914.02756-.38034.02756-.73036 0-1.0997-.3831-.36656-.38585-.36656-.95084 0-.30041.07166-.55673.07441-.25632.22049-.46853.34727-.452.89297-.452.49058 0 .76068.31695.27285.31695.27285.78273 0 .15158-.011.24253zm.01654-.19568h1.7281q0-.46578-.20119-.71658-.20119-.2508-.59531-.2508-.36656 0-.61736.24805-.24805.24529-.31419.71934z"/>
    <path d="m102.25 22.519q-.22048-.09095-.46302-.09095-.25631 0-.44648.14607-.18741.14607-.27561.42444 0 1.2954.0221 1.8962h-.2701q.0276-.75516.0276-1.356 0-.62563-.10749-1.2568l.24253-.06339q.0634.32797.0689.44648h.0331q.17087-.24254.34451-.36105.17639-.11851.36656-.11851.21773 0 .52916.09095z"/>
    <path d="m104.25 23.585q-.25356.5898-.36931.90399-.11576.31419-.11576.40514h-.2949q0-.08819.76619-1.7501.76894-1.6619.76894-1.8411h.31144q0 .16261.75516 1.8052.75792 1.6399.75792 1.7859h-.28387q0-.17914-.49609-1.3091zm.9095-2.056h-.0248q0 .07993-.81855 1.8741h1.6481q-.4079-.9536-.60634-1.3891-.19844-.43822-.19844-.48507z"/>
    <path d="m107.17 24.803.0606-.25907q.18465.08544.40238.12402.22049.03859.50161.03859.26458 0 .41616-.12678.15434-.12678.15434-.32797 0-.16536-.0799-.29214-.0799-.12678-.36656-.23978-.28663-.11576-.53192-.22875t-.3638-.2701q-.11576-.15985-.11576-.3638 0-.29766.23702-.47129.23703-.17363.59807-.17363.39412 0 .74139.10197l-.0634.23151q-.27285-.113-.70556-.113-.27009 0-.42995.12127-.15709.12127-.15709.29766 0 .20119.16812.31419t.56499.27561q.39688.15985.55949.32246.16536.16261.16536.452 0 .34451-.23151.53468-.23151.18741-.63941.18741-.46026 0-.8847-.13505z"/>
    <path d="m109.53 24.803.0606-.25907q.18465.08544.40238.12402.22049.03859.50161.03859.26458 0 .41617-.12678.15434-.12678.15434-.32797 0-.16536-.0799-.29214-.0799-.12678-.36656-.23978-.28663-.11576-.53192-.22875t-.3638-.2701q-.11576-.15985-.11576-.3638 0-.29766.23703-.47129.23702-.17363.59806-.17363.39412 0 .74139.10197l-.0634.23151q-.27285-.113-.70556-.113-.27009 0-.42994.12127-.1571.12127-.1571.29766 0 .20119.16812.31419t.565.27561q.39687.15985.55948.32246.16536.16261.16536.452 0 .34451-.23151.53468-.23151.18741-.63941.18741-.46026 0-.8847-.13505z"/>
    <path d="m112.18 21.243q.0744 0 .12127.06615.0469.06339.0469.14883 0 .09922-.0496.17088-.0496.07166-.15159.07166-.0854 0-.1378-.06339-.0496-.06339-.0496-.15158 0-.09371.0579-.16812.0606-.07441.1626-.07441zm-.23702 1.0556.31144-.07441q-.0303.64216-.0303 1.4525 0 .67248.0413 1.2182h-.28938q.0413-.66697.0413-1.2182 0-.77721-.0744-1.378z"/>
    <path d="m112.94 25.454q0-.25356.12127-.46026.12126-.20671.36931-.30868v-.01102q-.0909-.03583-.14883-.12678-.0579-.09371-.0579-.23978 0-.24805.24253-.44648v-.0055q-.12402-.04961-.25632-.23702-.12953-.19017-.12953-.452 0-.40514.27285-.68902.27561-.28663.74965-.28663.43546 0 .67249.19292h.022q.0551-.22875.16261-.33624.10749-.11024.27285-.11024.226 0 .30868.01654l-.022.23151q-.29766 0-.45751.07441-.1571.07441-.16261.19568v.01654q.10749.12678.15985.25356.0551.12402.0551.28939 0 .28112-.13229.50712-.12953.22324-.39136.34175-.26183.11576-.54295.11576-.14607 0-.27561-.01654-.12678-.01654-.18741-.0441-.16536.12127-.16536.32522 0 .17088.2067.23702.20671.06339.8599.06339 1.0004 0 1.0004.63114 0 .47956-.37482.81029-.37483.33073-1.0363.33073-.51814 0-.82682-.21773-.30868-.21497-.30868-.64492zm1.9265-2.3427q0-.34175-.21773-.53468-.21498-.19292-.5898-.19292-.34727 0-.55673.18466-.20671.18466-.20671.50161 0 .34726.22049.53192.22049.1819.58704.1819.33349 0 .54846-.1819.21498-.1819.21498-.49058zm.42719 2.2407q0-.30317-.21498-.44097-.21497-.13505-.85714-.13505-.34451 0-.6587-.03859-.19843.08268-.30868.23978-.11024.1571-.11024.37483 0 .36656.26183.55948.26182.19568.7717.19568.53468 0 .82406-.22324.29215-.22049.29215-.53192z"/>
    <path d="m116.39 22.59h.006q.452-.40514.89848-.40514.4768 0 .71658.20395.24254.20395.24254.71107l-.003.19844q0 .04685-.003.14056 0 .33624.003.54295l.003.91226h-.27561q.0662-.8406.0662-1.7446 0-.42444-.22876-.58153-.226-.1571-.58429-.1571-.46026 0-.8406.35553-.006.20119-.006.68902 0 .35829.003.67799l.006.58429q0 .05788.003.17639h-.26458q.0496-1.017.0496-1.356 0-.55122-.11024-1.2623l.27009-.05788z"/>
    <path d="m119.25 23.516q0 .53468.32797.8847.33073.34726.89021.34726.42444 0 .70556-.08544l-.0386.22049q-.0854.02756-.26458.05236-.17915.02756-.38034.02756-.73036 0-1.0997-.3831-.36656-.38585-.36656-.95084 0-.30041.0717-.55673.0744-.25632.22048-.46853.34727-.452.89297-.452.49058 0 .76068.31695.27285.31695.27285.78273 0 .15158-.011.24253zm.0165-.19568h1.7281q0-.46578-.20119-.71658t-.59531-.2508q-.36656 0-.61736.24805-.24805.24529-.3142.71934z"/>
    <path d="m124.22 22.268.003.55397q0 1.2292.0496 2.0726l-.23151.0055q-.0221-.12954-.0221-.29766h-.0276q-.12678.15158-.37207.25632t-.55397.10473q-.50437 0-.82407-.37758-.31695-.38034-.31695-.9288 0-.65595.36105-1.0694.36104-.41341.96462-.41341.2508 0 .43271.05788.18465.05512.28387.16261h.006q0-.49609-.022-1.378l.28871-.016527q-.0221.33073-.0221.80202 0 .30317.003.46578zm-.24805.32797q-.11851-.113-.2949-.16812-.17639-.05512-.38585-.05512-.54846 0-.82682.33073-.27561.32797-.27561.9536 0 .49334.26183.78824.26458.29214.7276.29214.23151 0 .42168-.07441.19017-.07717.41341-.31144 0-.14056.003-.42168 0-.71658-.0441-1.3339z"/>
    <path d="m94.815 27.679q-.64216.52641-.95636 1.2044-.31419.678-.31419 1.5158 0 .83785.31419 1.5158.31419.67799.95636 1.2044l-.09646.06339q-.68902-.4327-1.0473-1.141-.35829-.70556-.35829-1.6426 0-.93706.35829-1.6426.35829-.70831 1.0473-1.141z"/>
    <path d="m96.193 28.21q.15985-.0083.30317-.0083.87368 0 1.356.43822.48507.43546.48507 1.3064 0 .86541-.51263 1.3863-.50987.5209-1.367.5209-.07993 0-.30868-.01654l-.4768-.02756q.04685-.9977.04685-1.8907 0-.83509-.04685-1.7005h.15434q.12127 0 .21497-.0028zm1.9072 1.7997q0-.85438-.42168-1.2292t-1.1355-.37483q-.40239 0-.61736.02205 0 .48231.0028.7276l.0028.76343-.0028.79099q0 .54019.01654.91777.113.01654.22324.02481.113.0055.27836.0055.78824 0 1.2209-.4327.4327-.43546.4327-1.2154z"/>
    <path d="m99.247 30.432q0 .53468.32797.8847.33073.34726.89021.34726.42443 0 .70555-.08544l-.0386.22049q-.0854.02756-.26458.05237-.17915.02756-.38034.02756-.73036 0-1.0997-.38309-.36656-.38585-.36656-.95085 0-.30041.07166-.55673.07441-.25632.22049-.46853.34726-.452.89297-.452.49058 0 .76067.31695.27286.31695.27286.78272 0 .15158-.011.24254zm.01654-.19568h1.7281q0-.46578-.2012-.71658-.20119-.2508-.59531-.2508-.36655 0-.61736.24805-.24805.24529-.31419.71934z"/>
    <path d="m102.17 30.448q0 .55948.33624.88746.33899.32797.88194.32797.13229 0 .24805-.02205.11575-.0248.28387-.07993v.19844q-.0937.05788-.27285.08819-.17639.03032-.3197.03032-.62563 0-1.0115-.37483-.3831-.37483-.3831-.96463 0-.44924.18466-.76068.18741-.31144.48783-.49334.30316-.18466.73862-.18466.28388 0 .45751.07441l-.0468.27561q-.1819-.05788-.30593-.08544-.12126-.02756-.2508-.02756-.26458 0-.50987.14607t-.3831.39412q-.13504.24529-.13504.57051z"/>
    <path d="m104.76 28.158q.0744 0 .12126.06615.0469.06339.0469.14883 0 .09922-.0496.17088-.0496.07166-.15159.07166-.0854 0-.1378-.06339-.0496-.06339-.0496-.15158 0-.09371.0579-.16812.0606-.07441.16261-.07441zm-.23703 1.0556.31144-.07441q-.0303.64217-.0303 1.4525 0 .67248.0413 1.2182h-.28938q.0413-.66697.0413-1.2182 0-.77721-.0744-1.378z"/>
    <path d="m105.99 29.506h.006q.37207-.40514.79099-.40514.3638 0 .58705.10473.22324.10198.2949.30041h.022q.2067-.19844.41892-.30041.21222-.10473.41065-.10473.46302 0 .69453.20671.23151.2067.23151.70831l-.006.27285-.006.14883.003.45751q.008.38034.008.91502h-.26733q.0634-.75241.0634-1.8355 0-.35278-.16537-.49885-.16536-.14883-.57877-.14883-.19017 0-.39137.10473-.19843.10473-.38309.30592-.011.22048-.011.70004 0 .45751.0165 1.3725h-.27009q.0496-.70556.0496-1.7225 0-.48507-.18741-.62287t-.55673-.1378q-.38585 0-.79099.37207-.006.16812-.006.62012 0 .49609.008 1.1989l.003.29214h-.25356q.0496-1.017.0496-1.356 0-.55122-.11024-1.2623l.2701-.05788z"/>
    <path d="m111.94 31.529q-.36656.35002-.92604.35002-.41892 0-.64492-.18466-.226-.18741-.226-.5457 0-.44924.38585-.69178.38861-.24254 1.4111-.2508.011-.09922.011-.19568 0-.37758-.21497-.52365-.21497-.14883-.58704-.14883-.44098 0-.88746.113l.0358-.23702q.42168-.113.86265-.113.4768 0 .74414.19844.26734.19568.26734.65319 0 .14883-.0165.43546-.0138.28388-.0138.565 0 .40514.0634.85714l-.22048.01103q-.0276-.17088-.0276-.29214zm.011-1.13q-.7276 0-1.1438.16812-.41616.16536-.41616.60634 0 .49058.65043.49058.29766 0 .52641-.08819.23151-.08819.38309-.26734z"/>
    <path d="m113 27.927.32797-.01103q-.0331.7276-.0331 1.8328 0 1.0969.0441 2.0615h-.32246q.0524-.85714.0524-2.0615 0-1.0142-.0689-1.8218z"/>
    <path d="m114.04 33.119q.64216-.52641.95636-1.2044.31419-.67799.31419-1.5158 0-.83785-.31419-1.5158-.3142-.67799-.95636-1.2044l.0965-.06339q.68902.4327 1.0473 1.141.35829.70556.35829 1.6426 0 .93707-.35829 1.6426-.35829.70831-1.0473 1.141z"/>
   </g>
   <g transform="translate(5 12)" fill="#fff" aria-label="Number Assigned  (Binary)">
    <path d="m141.43 21.672q1.1135 1.5903 1.469 2.1552t.37207.6146h.011q-.0276-.6146-.0276-1.2127v-.7469q0-.74965-.0165-1.1796h.24253q-.0331.63114-.0331 1.808 0 .53192.006.94258.006.4079.0276.8406h-.1571q-.006 0-.37482-.57602-.36932-.57602-.6587-.9977l-.63114-.92053-.20671-.30317q-.1378-.19844-.20946-.30592-.0717-.10749-.0992-.15985h-.011q.022.65319.022 1.1906 0 .2508-.006.71382l-.003.62287q0 .44924.0138.73587h-.24254q.0469-1.0638.0469-1.8907 0-.83509-.0469-1.7005h.25907q0 .0083.10198.15158z"/>
    <path d="m146.49 24.9q-.0331-.15434-.0331-.26458h-.011q-.15985.12954-.39963.226-.23978.09646-.5209.09646-.57602 0-.76067-.2508-.1819-.25356-.1819-.68626l.003-.35002q0-.06615.003-.18741.006-.15158.006-.40514 0-.35278-.0331-.79099l.29214-.01654q-.022.48231-.022 1.0997 0 .49609.0276.80477.0276.30868.17088.4327.14607.12402.51263.12402.57602 0 .89848-.30592 0-1.6509-.022-2.1387l.25907-.01654-.003.18741q-.0138.82682-.0138 1.3119 0 .57326.0496 1.1245z"/>
    <path d="m147.83 22.59h.006q.37207-.40514.79099-.40514.3638 0 .58705.10473.22324.10197.2949.30041h.022q.20671-.19844.41893-.30041.21222-.10473.41065-.10473.46302 0 .69453.2067.23151.20671.23151.70831l-.006.27285-.006.14883.003.45751q.008.38034.008.91502h-.26734q.0634-.75241.0634-1.8355 0-.35278-.16536-.49885-.16536-.14883-.57878-.14883-.19017 0-.39136.10473-.19844.10473-.38309.30592-.011.22049-.011.70004 0 .45751.0165 1.3725h-.2701q.0496-.70556.0496-1.7225 0-.48507-.18741-.62287-.18741-.1378-.55673-.1378-.38585 0-.79099.37207-.006.16812-.006.62012 0 .49609.008 1.1989l.003.29214h-.25356q.0496-1.017.0496-1.356 0-.55122-.11024-1.2623l.27009-.05788z"/>
    <path d="m153.21 24.963q-.25907 0-.46026-.05512-.19844-.05237-.31419-.12127h-.011l-.0496.10749h-.20395q.0276-.78272.0276-2.0615 0-1.0666-.0441-1.8052l.3031-.027563q-.0276.28112-.0276 1.5406h.011q.12678-.15434.36656-.25631.23977-.10473.52641-.10473.55121 0 .85989.37758.30868.37483.30868.92604 0 .64492-.3638 1.0638-.36105.41617-.9288.41617zm.0496-2.5631q-.56775 0-.8406.39963 0 1.0363.0331 1.7722.28388.19292.70556.19292.55121 0 .8158-.35829.26458-.36105.26458-.87368 0-.56224-.27285-.84612-.27285-.28663-.70556-.28663z"/>
    <path d="m155.42 23.516q0 .53468.32797.8847.33073.34726.89021.34726.42444 0 .70556-.08544l-.0386.22049q-.0854.02756-.26458.05236-.17914.02756-.38034.02756-.73036 0-1.0997-.3831-.36656-.38585-.36656-.95084 0-.30041.0717-.55673.0744-.25632.22048-.46853.34727-.452.89297-.452.49058 0 .76068.31695.27285.31695.27285.78273 0 .15158-.011.24253zm.0165-.19568h1.728q0-.46578-.20119-.71658t-.59531-.2508q-.36656 0-.61736.24805-.24805.24529-.31419.71934z"/>
    <path d="m159.61 22.519q-.22048-.09095-.46302-.09095-.25631 0-.44648.14607-.18742.14607-.27561.42444 0 1.2954.0221 1.8962h-.2701q.0276-.75516.0276-1.356 0-.62563-.10748-1.2568l.24253-.06339q.0634.32797.0689.44648h.0331q.17087-.24254.3445-.36105.17639-.11851.36656-.11851.21773 0 .52917.09095z"/>
    <path d="m161.61 23.585q-.25356.5898-.36932.90399-.11575.31419-.11575.40514h-.2949q0-.08819.76619-1.7501.76894-1.6619.76894-1.8411h.31144q0 .16261.75516 1.8052.75792 1.6399.75792 1.7859h-.28387q0-.17914-.4961-1.3091zm.9095-2.056h-.0248q0 .07993-.81856 1.8741h1.6481q-.4079-.9536-.60634-1.3891-.19844-.43822-.19844-.48507z"/>
    <path d="m164.52 24.803.0606-.25907q.18466.08544.40239.12402.22049.03859.50161.03859.26458 0 .41616-.12678.15434-.12678.15434-.32797 0-.16536-.0799-.29214-.0799-.12678-.36656-.23978-.28663-.11576-.53192-.22875t-.36381-.2701q-.11575-.15985-.11575-.3638 0-.29766.23702-.47129.23702-.17363.59807-.17363.39412 0 .74138.10197l-.0634.23151q-.27285-.113-.70555-.113-.2701 0-.42995.12127-.15709.12127-.15709.29766 0 .20119.16812.31419t.56499.27561q.39688.15985.55948.32246.16537.16261.16537.452 0 .34451-.23151.53468-.23151.18741-.63941.18741-.46027 0-.8847-.13505z"/>
    <path d="m166.89 24.803.0606-.25907q.18466.08544.40239.12402.22049.03859.50161.03859.26458 0 .41616-.12678.15434-.12678.15434-.32797 0-.16536-.0799-.29214-.0799-.12678-.36656-.23978-.28663-.11576-.53192-.22875t-.3638-.2701q-.11576-.15985-.11576-.3638 0-.29766.23702-.47129.23703-.17363.59807-.17363.39412 0 .74139.10197l-.0634.23151q-.27286-.113-.70556-.113-.27009 0-.42995.12127-.15709.12127-.15709.29766 0 .20119.16812.31419t.56499.27561q.39688.15985.55949.32246.16536.16261.16536.452 0 .34451-.23151.53468-.23151.18741-.63941.18741-.46026 0-.8847-.13505z"/>
    <path d="m169.53 21.243q.0744 0 .12127.06615.0469.06339.0469.14883 0 .09922-.0496.17088-.0496.07166-.15158.07166-.0854 0-.1378-.06339-.0496-.06339-.0496-.15158 0-.09371.0579-.16812.0606-.07441.16261-.07441zm-.23702 1.0556.31144-.07441q-.0303.64216-.0303 1.4525 0 .67248.0413 1.2182h-.28939q.0413-.66697.0413-1.2182 0-.77721-.0744-1.378z"/>
    <path d="m170.29 25.454q0-.25356.12126-.46026.12127-.20671.36932-.30868v-.01102q-.091-.03583-.14883-.12678-.0579-.09371-.0579-.23978 0-.24805.24254-.44648v-.0055q-.12403-.04961-.25632-.23702-.12953-.19017-.12953-.452 0-.40514.27285-.68902.27561-.28663.74965-.28663.43546 0 .67248.19292h.0221q.0551-.22875.16261-.33624.10749-.11024.27285-.11024.226 0 .30868.01654l-.022.23151q-.29765 0-.45751.07441-.15709.07441-.1626.19568v.01654q.10748.12678.15985.25356.0551.12402.0551.28939 0 .28112-.13229.50712-.12954.22324-.39136.34175-.26183.11576-.54295.11576-.14607 0-.27561-.01654-.12678-.01654-.18741-.0441-.16537.12127-.16537.32522 0 .17088.20671.23702.20671.06339.85989.06339 1.0005 0 1.0005.63114 0 .47956-.37483.81029-.37482.33073-1.0363.33073-.51814 0-.82682-.21773-.30868-.21497-.30868-.64492zm1.9265-2.3427q0-.34175-.21773-.53468-.21497-.19292-.5898-.19292-.34726 0-.55672.18466-.20671.18466-.20671.50161 0 .34726.22049.53192.22048.1819.58704.1819.33349 0 .54846-.1819t.21497-.49058zm.42719 2.2407q0-.30317-.21497-.44097-.21497-.13505-.85714-.13505-.34451 0-.6587-.03859-.19844.08268-.30868.23978-.11024.1571-.11024.37483 0 .36656.26182.55948.26183.19568.7717.19568.53468 0 .82407-.22324.29214-.22049.29214-.53192z"/>
    <path d="m173.75 22.59h.006q.452-.40514.89848-.40514.4768 0 .71658.20395.24253.20395.24253.71107l-.003.19844q0 .04685-.003.14056 0 .33624.003.54295l.003.91226h-.2756q.0661-.8406.0661-1.7446 0-.42444-.22875-.58153-.226-.1571-.58429-.1571-.46026 0-.8406.35553-.006.20119-.006.68902 0 .35829.003.67799l.006.58429q0 .05788.003.17639h-.26458q.0496-1.017.0496-1.356 0-.55122-.11025-1.2623l.2701-.05788z"/>
    <path d="m176.6 23.516q0 .53468.32798.8847.33073.34726.89021.34726.42443 0 .70555-.08544l-.0386.22049q-.0854.02756-.26458.05236-.17915.02756-.38034.02756-.73036 0-1.0997-.3831-.36655-.38585-.36655-.95084 0-.30041.0717-.55673.0744-.25632.22049-.46853.34727-.452.89297-.452.49058 0 .76067.31695.27286.31695.27286.78273 0 .15158-.011.24253zm.0165-.19568h1.7281q0-.46578-.20119-.71658-.2012-.2508-.59532-.2508-.36655 0-.61736.24805-.24804.24529-.31419.71934z"/>
    <path d="m181.58 22.268.003.55397q0 1.2292.0496 2.0726l-.23151.0055q-.0221-.12954-.0221-.29766h-.0276q-.12678.15158-.37207.25632t-.55397.10473q-.50436 0-.82406-.37758-.31695-.38034-.31695-.9288 0-.65595.36104-1.0694.36105-.41341.96463-.41341.2508 0 .4327.05788.18466.05512.28388.16261h.006q0-.49609-.0221-1.378l.2888-.016527q-.022.33073-.022.80202 0 .30317.003.46578zm-.24805.32797q-.11851-.113-.2949-.16812-.17639-.05512-.38585-.05512-.54846 0-.82682.33073-.27561.32797-.27561.9536 0 .49334.26183.78824.26458.29214.7276.29214.23151 0 .42168-.07441.19017-.07717.41341-.31144 0-.14056.003-.42168 0-.71658-.0441-1.3339z"/>
    <path d="m154.32 27.679q-.64216.52641-.95636 1.2044-.31419.678-.31419 1.5158 0 .83785.31419 1.5158.3142.67799.95636 1.2044l-.0965.06339q-.68902-.4327-1.0473-1.141-.35829-.70556-.35829-1.6426 0-.93706.35829-1.6426.35829-.70831 1.0473-1.141z"/>
    <path d="m155.18 31.81.0193-.57602q.0331-.83234.0331-1.3146 0-.28388-.008-.60082-.008-.3197-.022-.68626l-.01689-.41341h.23151q.12954 0 .31695-.0083l.1819-.0055q.10473 0 .22876-.0028.5457 0 .81855.19844.27285.19568.27285.58704 0 .30041-.15709.52641-.15434.22324-.40239.33073v.01654q.3638.04134.58429.26183.22324.21773.22324.565 0 .54846-.42995.84336t-1.1328.2949q-.1378 0-.74138-.01654zm.24254-3.3872q.011.04961.0138.37207.003.32246.003.96738.113.0055.46302.0055l.11851.0028q.36105 0 .66422-.14056.30592-.14332.32521-.57878 0-.32522-.21497-.48507t-.67248-.15985q-.27561 0-.47956.0083-.20119.0083-.22048.0083zm.0165 1.5572-.003.8158q0 .51814.0165.79926.14332.03307.43271.03307.62838 0 1.0004-.21773.37207-.21773.37207-.65043 0-.38309-.30592-.59256-.30317-.20946-.98117-.20946-.21497 0-.3197.0055-.10473.0028-.21222.01654z"/>
    <path d="m158.39 28.158q.0744 0 .12127.06615.0469.06339.0469.14883 0 .09922-.0496.17088-.0496.07166-.15158.07166-.0854 0-.1378-.06339-.0496-.06339-.0496-.15158 0-.09371.0579-.16812.0606-.07441.16261-.07441zm-.23702 1.0556.31144-.07441q-.0303.64217-.0303 1.4525 0 .67248.0413 1.2182h-.28939q.0413-.66697.0413-1.2182 0-.77721-.0744-1.378z"/>
    <path d="m159.62 29.506h.006q.452-.40514.89848-.40514.47681 0 .71658.20395.24254.20395.24254.71107l-.003.19844q0 .04685-.003.14056 0 .33624.003.54295l.003.91226h-.27561q.0661-.8406.0661-1.7446 0-.42444-.22876-.58153-.226-.1571-.58429-.1571-.46026 0-.8406.35553-.006.20119-.006.68902 0 .35829.003.67799l.006.58429q0 .05788.003.17639h-.26458q.0496-1.017.0496-1.356 0-.55122-.11024-1.2623l.27009-.05788z"/>
    <path d="m163.97 31.529q-.36656.35002-.92604.35002-.41892 0-.64492-.18466-.226-.18741-.226-.5457 0-.44924.38585-.69178.38861-.24254 1.4111-.2508.011-.09922.011-.19568 0-.37758-.21497-.52365-.21497-.14883-.58704-.14883-.44098 0-.88746.113l.0358-.23702q.42168-.113.86265-.113.4768 0 .74414.19844.26734.19568.26734.65319 0 .14883-.0165.43546-.0138.28388-.0138.565 0 .40514.0634.85714l-.22048.01103q-.0276-.17088-.0276-.29214zm.011-1.13q-.7276 0-1.1438.16812-.41616.16536-.41616.60634 0 .49058.65043.49058.29766 0 .52641-.08819.23151-.08819.38309-.26734z"/>
    <path d="m166.53 29.434q-.22049-.09095-.46302-.09095-.25632 0-.44649.14607-.18741.14607-.27561.42444 0 1.2954.0221 1.8962h-.27009q.0276-.75516.0276-1.356 0-.62563-.10749-1.2568l.24254-.06339q.0634.32797.0689.44648h.0331q.17088-.24253.34451-.36104.17639-.11851.36656-.11851.21773 0 .52916.09095z"/>
    <path d="m166.85 33.028.011-.226q.39412 0 .60358-.28663.20946-.28388.20946-.66146 0-.17639-.20395-.71382-.20119-.54019-.6587-1.5682l-.17087-.38034h.30592q0 .09095.42719 1.1162.42995 1.0253.44649 1.2595h.011q0-.19844.36105-1.1768.36104-.97841.36104-1.1989h.28388q0 .09922-.13781.41341-.1378.31419-.42443 1.1052-.28663.79099-.41066 1.3146-.12402.52641-.36656.76343-.24253.23978-.64767.23978z"/>
    <path d="m169.24 33.119q.64216-.52641.95636-1.2044.31419-.67799.31419-1.5158 0-.83785-.31419-1.5158-.3142-.67799-.95636-1.2044l.0965-.06339q.68902.4327 1.0473 1.141.35829.70556.35829 1.6426 0 .93707-.35829 1.6426-.35829.70831-1.0473 1.141z"/>
   </g>
   <g transform="translate(5 12)" aria-label="!">
    <path d="m49.151 42.838h-.30393l-.03293-2.3732h.36472zm-.1469.54961q.1317 0 .22035.08865.08865.08611.08865.21022 0 .12917-.08865.22035-.08865.08865-.22035.08865-.12917 0-.21528-.08865-.08358-.09118-.08358-.22035 0-.12411.08611-.21022.08611-.08865.21275-.08865z" fill="#fff" stroke-width=".3"/>
   </g>
   <g transform="translate(5 12)" aria-label="⋮">
    <path d="m48.776 50.294v-.47508h.47508v.47508zm0-1.1889v-.47749h.47508v.47749zm0-1.1913v-.47508h.47508v.47508z" fill="#9f9393" stroke-width=".3"/>
   </g>
   <g transform="translate(5 12)" aria-label="+">
    <path d="m49.164 54.932h.98778v.28114h-.98778v.99031h-.3166v-.99031h-.97512v-.28114h.97512v-1.0004h.3166z" fill="#fff" stroke-width=".3"/>
   </g>
   <g transform="translate(5 12)" aria-label="2">
    <path d="m48.847 65.816q.3014 0 .52935.1241.22795.12411.34952.34446.1241.21782.1241.49642 0 .32926-.1545.64332-.1545.31406-.49389.68891-.33686.37485-.95485.94219h1.6843l-.04306.28874h-1.9958v-.28114q.70664-.67878 1.0384-1.0536.33432-.37485.45843-.64332.12411-.26847.12411-.5876t-.17983-.50149q-.17729-.18236-.48882-.18236-.18236 0-.3166.04052-.1317.03799-.24314.11904-.10891.07852-.23048.21782l-.23302-.18489q.21022-.24821.45083-.35965.24315-.11144.57494-.11144z" fill="#fff" stroke-width=".3"/>
   </g>
   <g transform="translate(5 12)" aria-label="4">
    <path d="m50.131 81.163h-.48122v.8814h-.30393v-.8814h-1.4487v-.24314l1.0384-2.4036.25834.12157-.95738 2.2618h1.1119l.04306-1.0308h.25834v1.0308h.48122z" fill="#fff" stroke-width=".3"/>
   </g>
   <g transform="translate(5 12)" aria-label="=">
    <path d="m49.949 92.85h-1.8742v-.29127h1.8742zm0 .93206h-1.8742v-.2938h1.8742z" fill="#fff" stroke-width=".3"/>
   </g>
   <g transform="translate(5 12)" aria-label="A">
    <path d="m48.255 106.51-.30646.92952h-.30393l1.1524-3.48h.42804l1.1549 3.48h-.33432l-.30646-.92952zm1.3778-.2938-.63066-1.9553-.63826 1.9553z" fill="#fff" stroke-width=".3"/>
   </g>
   <g transform="translate(5 12)" aria-label="H">
    <path d="m49.739 118.44h-1.4538v1.7071h-.32166v-3.48h.32166v1.5095h1.4538v-1.5095h.32166v3.48h-.32166z" fill="#fff" stroke-width=".3"/>
   </g>
   <g transform="translate(5 12)" fill="#fff" aria-label="33">
    <path d="m102.73 40.416q.30646 0 .53947.11651.23555.11651.36472.31406.12917.19756.12917.4331 0 .20262-.0937.37738-.0912.17476-.24568.28874-.1545.11144-.32926.1393.20009.01266.37739.11651.17982.10131.29126.29127.11144.18742.11144.4407 0 .3014-.14943.54454-.1469.24061-.41284.37992-.26594.13677-.6028.13677-.28873 0-.5648-.10891-.27607-.11144-.45843-.33939l.23808-.17729q.14183.1697.35205.26088.21022.08865.43564.08865.26087 0 .44576-.09371.18743-.09371.28367-.26594.0988-.17476.0988-.40778 0-.70411-.75983-.70411h-.28367l.0405-.27101h.19755q.18236 0 .34192-.07092.1621-.07345.26088-.22035.10131-.14943.10131-.36218 0-.20262-.0937-.34699-.0937-.1469-.25328-.22035-.15956-.07345-.35712-.07345-.22541 0-.39511.07598-.16716.07598-.35459.25074l-.18236-.21275q.40525-.37992.927-.37992z"/>
    <path d="m105.77 40.416q.30646 0 .53947.11651.23555.11651.36472.31406.12917.19756.12917.4331 0 .20262-.0937.37738-.0912.17476-.24568.28874-.1545.11144-.32926.1393.20009.01266.37739.11651.17982.10131.29126.29127.11144.18742.11144.4407 0 .3014-.14943.54454-.1469.24061-.41284.37992-.26594.13677-.6028.13677-.28873 0-.5648-.10891-.27607-.11144-.45843-.33939l.23808-.17729q.14183.1697.35205.26088.21022.08865.43564.08865.26087 0 .44576-.09371.18743-.09371.28367-.26594.0988-.17476.0988-.40778 0-.70411-.75983-.70411h-.28367l.0405-.27101h.19755q.18236 0 .34192-.07092.1621-.07345.26088-.22035.10131-.14943.10131-.36218 0-.20262-.0937-.34699-.0937-.1469-.25328-.22035-.15956-.07345-.35712-.07345-.22542 0-.39511.07598-.16716.07598-.35459.25074l-.18236-.21275q.40525-.37992.927-.37992z"/>
   </g>
   <g transform="translate(5 12)" aria-label="⋮">
    <path d="m104.18 50.294v-.47508h.47508v.47508zm0-1.1889v-.47749h.47508v.47749zm0-1.1913v-.47508h.47508v.47508z" fill="#9f9393" stroke-width=".3"/>
   </g>
   <g transform="translate(5 12)" fill="#fff" aria-label="43">
    <path d="m104.02 55.763h-.48123v.8814h-.30393v-.8814h-1.4487v-.24314l1.0384-2.4036.25834.12157-.95738 2.2618h1.1119l.0431-1.0308h.25834v1.0308h.48123z"/>
    <path d="m105.77 53.116q.30646 0 .53947.11651.23555.11651.36472.31406.12917.19756.12917.4331 0 .20262-.0937.37738-.0912.17476-.24568.28874-.1545.11144-.32926.1393.20009.01266.37739.11651.17982.10131.29126.29127.11144.18742.11144.4407 0 .3014-.14943.54454-.1469.24061-.41284.37991-.26594.13677-.6028.13677-.28873 0-.5648-.10891-.27607-.11144-.45843-.33939l.23808-.17729q.14183.1697.35205.26088.21022.08865.43564.08865.26087 0 .44576-.09371.18743-.09371.28367-.26594.0988-.17476.0988-.40778 0-.70411-.75983-.70411h-.28367l.0405-.271h.19755q.18236 0 .34192-.07092.1621-.07345.26088-.22035.10131-.14943.10131-.36219 0-.20262-.0937-.34699-.0937-.1469-.25328-.22035-.15956-.07345-.35712-.07345-.22542 0-.39511.07598-.16716.07598-.35459.25074l-.18236-.21275q.40525-.37992.927-.37992z"/>
   </g>
   <g transform="translate(5 12)" fill="#fff" aria-label="50">
    <path d="m103.75 66.133h-1.4057v1.2031q.16463-.09118.30899-.12664.14437-.03546.31913-.03546.28874 0 .50149.12664.21275.12664.32673.36978.11397.24314.11397.58507 0 .34446-.13677.6028-.13677.25581-.39004.39764-.25328.1393-.59267.1393-.2862 0-.51922-.09624-.23301-.09878-.44576-.2938l.20262-.20515q.16969.16463.35965.24314.18996.07598.4255.07598.36979 0 .56734-.22288.19756-.22288.19756-.66105 0-.42044-.18489-.6028-.18236-.18489-.48883-.18489-.15703 0-.27353.02533-.11398.02533-.30647.09118h-.28367v-1.6995h1.7603z"/>
    <path d="m105.94 65.816q.54202 0 .82315.46096.28114.45843.28114 1.3272 0 .8738-.28114 1.3322-.28113.45843-.82315.45843-.53947 0-.82314-.45843-.28114-.46096-.28114-1.3322 0-.86874.28114-1.3272.28367-.46096.82314-.46096zm-.74463 1.7881q0 .6028.11144.96498l1.1246-2.239q-.17729-.24061-.49136-.24061-.35205 0-.5496.37232-.19503.36978-.19503 1.1423zm.74463 1.5146q.35459 0 .54961-.36978.19756-.37232.19756-1.1448 0-.65092-.12411-1.0131l-1.1245 2.2643q.17729.26341.50148.26341z"/>
   </g>
   <g transform="translate(5 12)" fill="#fff" aria-label="52">
    <path d="m103.75 78.833h-1.4057v1.2031q.16463-.09118.30899-.12664.14437-.03546.31913-.03546.28874 0 .50149.12664.21275.12664.32673.36978.11397.24314.11397.58507 0 .34446-.13677.6028-.13677.25581-.39004.39764-.25328.1393-.59267.1393-.2862 0-.51922-.09625-.23301-.09878-.44576-.2938l.20262-.20515q.16969.16463.35965.24314.18996.07598.4255.07598.36979 0 .56734-.22288.19756-.22288.19756-.66105 0-.42044-.18489-.6028-.18236-.18489-.48883-.18489-.15703 0-.27353.02533-.11398.02533-.30647.09118h-.28367v-1.6995h1.7603z"/>
    <path d="m105.77 78.516q.30139 0 .52934.1241.22795.12411.34952.34446.12411.21782.12411.49642 0 .32926-.1545.64332t-.49389.68891q-.33686.37485-.95485.94219h1.6843l-.0431.28874h-1.9958v-.28114q.70664-.67878 1.0384-1.0536.33432-.37485.45843-.64332.1241-.26847.1241-.5876t-.17982-.50149q-.1773-.18236-.48883-.18236-.18236 0-.31659.04052-.13171.03799-.24315.11904-.10891.07852-.23048.21782l-.23301-.18489q.21022-.24821.45083-.35965.24314-.11144.57494-.11144z"/>
   </g>
   <g transform="translate(5 12)" fill="#fff" aria-label="61">
    <path d="m103 92.498q.27607 0 .49895.11904.22542.11651.35712.35965.13424.24314.13424.60026 0 .37991-.14437.65599-.14437.27607-.38498.42044-.24061.14184-.52428.14184-.5952 0-.85607-.43564-.25835-.43564-.25835-1.2816 0-.5724.14437-.99031.1469-.42044.42297-.64585.27861-.22542.66359-.22542.36725 0 .66865.19756l-.12664.23048q-.25581-.14943-.55721-.14943-.2862 0-.48882.18742-.20262.18742-.309.52935-.10384.34192-.11144.80289.16716-.27101.37738-.39258.21275-.12411.49389-.12411zm-.0684 2.0186q.35712 0 .54202-.24314.18742-.24568.18742-.69651 0-.4255-.17983-.60786-.17729-.18236-.50402-.18236-.27353 0-.48882.15197-.21275.15197-.35205.41284.0101.40778.0962.66358t.25581.37992q.17223.12157.44323.12157z"/>
    <path d="m106.99 94.473v.27101h-1.9325v-.27101h.86114v-2.8468l-.82315.49642-.1393-.23048 1.0106-.62813h.27353v3.209z"/>
   </g>
   <g transform="translate(5 12)" fill="#fff" aria-label="65">
    <path d="m103 105.2q.27607 0 .49895.11904.22542.11651.35712.35965.13424.24315.13424.60027 0 .37991-.14437.65599-.14437.27607-.38498.42043-.24061.14184-.52428.14184-.5952 0-.85607-.43564-.25835-.43563-.25835-1.2816 0-.5724.14437-.99031.1469-.42043.42297-.64585.27861-.22542.66359-.22542.36725 0 .66865.19756l-.12664.23048q-.25581-.14943-.55721-.14943-.2862 0-.48882.18742-.20262.18743-.309.52935-.10384.34192-.11144.80289.16716-.27101.37738-.39258.21275-.12411.49389-.12411zm-.0684 2.0186q.35712 0 .54202-.24314.18742-.24568.18742-.69651 0-.42551-.17983-.60786-.17729-.18236-.50402-.18236-.27353 0-.48882.15196-.21275.15197-.35205.41284.0101.40778.0962.66359t.25581.37991q.17223.12157.44323.12157z"/>
    <path d="m106.79 104.23h-1.4057v1.2031q.16463-.0912.30899-.12664.14437-.0355.31913-.0355.28874 0 .50149.12664t.32673.36979q.11397.24314.11397.58507 0 .34445-.13677.60279-.13677.25581-.39004.39765-.25328.1393-.59267.1393-.2862 0-.51922-.0962-.23301-.0988-.44576-.2938l.20262-.20515q.16969.16463.35965.24314.18996.076.4255.076.36979 0 .56734-.22289.19756-.22288.19756-.66105 0-.42044-.18489-.60279-.18236-.1849-.48883-.1849-.15703 0-.27354.0253-.11397.0253-.30646.0912h-.28367v-1.6995h1.7603z"/>
   </g>
   <g transform="translate(5 12)" fill="#fff" aria-label="72">
    <path d="m102.21 120.1 1.3728-3.1533h-1.664v-.2786h1.9806v.26087l-1.4006 3.2571z"/>
    <path d="m105.77 116.62q.30139 0 .52934.12411.22795.1241.34952.34445.12411.21782.12411.49643 0 .32925-.1545.64332-.1545.31406-.49389.68891-.33686.37485-.95485.94219h1.6843l-.0431.28873h-1.9958v-.28113q.70664-.67878 1.0384-1.0536.33432-.37485.45843-.64333.1241-.26847.1241-.5876t-.17982-.50148q-.1773-.18236-.48883-.18236-.18236 0-.31659.0405-.13171.038-.24315.11904-.10891.0785-.23048.21782l-.23301-.18489q.21022-.24821.45083-.35966.24314-.11144.57494-.11144z"/>
   </g>
   <g transform="translate(5 12)" fill="#fff" aria-label="0010 0001">
    <path d="m149.79 40.416q.54202 0 .82315.46096.28114.45843.28114 1.3272 0 .8738-.28114 1.3322-.28113.45843-.82315.45843-.53947 0-.82314-.45843-.28114-.46096-.28114-1.3322 0-.86874.28114-1.3272.28367-.46096.82314-.46096zm-.74463 1.7881q0 .6028.11144.96498l1.1246-2.239q-.17729-.24061-.49136-.24061-.35205 0-.54961.37232-.19502.36978-.19502 1.1423zm.74463 1.5146q.35459 0 .54961-.36978.19756-.37232.19756-1.1448 0-.65092-.12411-1.0131l-1.1245 2.2643q.17729.26341.50148.26341z"/>
    <path d="m152.83 40.416q.54202 0 .82315.46096.28114.45843.28114 1.3272 0 .8738-.28114 1.3322-.28113.45843-.82315.45843-.53948 0-.82314-.45843-.28114-.46096-.28114-1.3322 0-.86874.28114-1.3272.28366-.46096.82314-.46096zm-.74463 1.7881q0 .6028.11144.96498l1.1246-2.239q-.17729-.24061-.49136-.24061-.35205 0-.54961.37232-.19502.36978-.19502 1.1423zm.74463 1.5146q.35459 0 .54961-.36978.19756-.37232.19756-1.1448 0-.65092-.12411-1.0131l-1.1245 2.2643q.17729.26341.50148.26341z"/>
    <path d="m156.92 43.673v.27101h-1.9325v-.27101h.86114v-2.8468l-.82315.49642-.1393-.23048 1.0106-.62812h.27354v3.209z"/>
    <path d="m158.91 40.416q.54201 0 .82315.46096.28114.45843.28114 1.3272 0 .8738-.28114 1.3322-.28114.45843-.82315.45843-.53948 0-.82315-.45843-.28113-.46096-.28113-1.3322 0-.86874.28113-1.3272.28367-.46096.82315-.46096zm-.74463 1.7881q0 .6028.11144.96498l1.1246-2.239q-.17729-.24061-.49136-.24061-.35205 0-.54961.37232-.19502.36978-.19502 1.1423zm.74463 1.5146q.35459 0 .54961-.36978.19756-.37232.19756-1.1448 0-.65092-.12411-1.0131l-1.1245 2.2643q.17729.26341.50148.26341z"/>
    <path d="m164.99 40.416q.54201 0 .82315.46096.28114.45843.28114 1.3272 0 .8738-.28114 1.3322-.28114.45843-.82315.45843-.53948 0-.82315-.45843-.28113-.46096-.28113-1.3322 0-.86874.28113-1.3272.28367-.46096.82315-.46096zm-.74463 1.7881q0 .6028.11144.96498l1.1246-2.239q-.17729-.24061-.49136-.24061-.35205 0-.54961.37232-.19502.36978-.19502 1.1423zm.74463 1.5146q.35459 0 .54961-.36978.19756-.37232.19756-1.1448 0-.65092-.12411-1.0131l-1.1245 2.2643q.17729.26341.50148.26341z"/>
    <path d="m168.03 40.416q.54201 0 .82315.46096.28114.45843.28114 1.3272 0 .8738-.28114 1.3322-.28114.45843-.82315.45843-.53948 0-.82315-.45843-.28113-.46096-.28113-1.3322 0-.86874.28113-1.3272.28367-.46096.82315-.46096zm-.74463 1.7881q0 .6028.11144.96498l1.1246-2.239q-.17729-.24061-.49136-.24061-.35205 0-.54961.37232-.19502.36978-.19502 1.1423zm.74463 1.5146q.35459 0 .54961-.36978.19756-.37232.19756-1.1448 0-.65092-.12411-1.0131l-1.1245 2.2643q.17729.26341.50148.26341z"/>
    <path d="m171.06 40.416q.54201 0 .82315.46096.28114.45843.28114 1.3272 0 .8738-.28114 1.3322-.28114.45843-.82315.45843-.53948 0-.82315-.45843-.28113-.46096-.28113-1.3322 0-.86874.28113-1.3272.28367-.46096.82315-.46096zm-.74463 1.7881q0 .6028.11144.96498l1.1246-2.239q-.1773-.24061-.49136-.24061-.35205 0-.54961.37232-.19502.36978-.19502 1.1423zm.74463 1.5146q.35459 0 .54961-.36978.19756-.37232.19756-1.1448 0-.65092-.12411-1.0131l-1.1246 2.2643q.1773.26341.50149.26341z"/>
    <path d="m175.16 43.673v.27101h-1.9325v-.27101h.86114v-2.8468l-.82315.49642-.1393-.23048 1.0106-.62812h.27354v3.209z"/>
   </g>
   <g transform="translate(5 12)" fill="#9f9393" aria-label="⋮">
    <path d="m161.71 50.294v-.47508h.47507v.47508zm0-1.1889v-.47749h.47507v.47749zm0-1.1913v-.47508h.47507v.47508z" fill="#9f9393" stroke-width=".3"/>
   </g>
   <g transform="translate(5 12)" fill="#fff" aria-label="0010 1011">
    <path d="m149.79 53.116q.54202 0 .82315.46096.28114.45843.28114 1.3272 0 .8738-.28114 1.3322-.28113.45843-.82315.45843-.53947 0-.82314-.45843-.28114-.46096-.28114-1.3322 0-.86874.28114-1.3272.28367-.46096.82314-.46096zm-.74463 1.7881q0 .6028.11144.96498l1.1246-2.239q-.17729-.24061-.49136-.24061-.35205 0-.54961.37232-.19502.36978-.19502 1.1423zm.74463 1.5146q.35459 0 .54961-.36978.19756-.37232.19756-1.1448 0-.65092-.12411-1.0131l-1.1245 2.2643q.17729.26341.50148.26341z"/>
    <path d="m152.83 53.116q.54202 0 .82315.46096.28114.45843.28114 1.3272 0 .8738-.28114 1.3322-.28113.45843-.82315.45843-.53948 0-.82314-.45843-.28114-.46096-.28114-1.3322 0-.86874.28114-1.3272.28366-.46096.82314-.46096zm-.74463 1.7881q0 .6028.11144.96498l1.1246-2.239q-.17729-.24061-.49136-.24061-.35205 0-.54961.37232-.19502.36978-.19502 1.1423zm.74463 1.5146q.35459 0 .54961-.36978.19756-.37232.19756-1.1448 0-.65092-.12411-1.0131l-1.1245 2.2643q.17729.26341.50148.26341z"/>
    <path d="m156.92 56.373v.271h-1.9325v-.271h.86114v-2.8468l-.82315.49642-.1393-.23048 1.0106-.62813h.27354v3.209z"/>
    <path d="m158.91 53.116q.54201 0 .82315.46096.28114.45843.28114 1.3272 0 .8738-.28114 1.3322-.28114.45843-.82315.45843-.53948 0-.82315-.45843-.28113-.46096-.28113-1.3322 0-.86874.28113-1.3272.28367-.46096.82315-.46096zm-.74463 1.7881q0 .6028.11144.96498l1.1246-2.239q-.17729-.24061-.49136-.24061-.35205 0-.54961.37232-.19502.36978-.19502 1.1423zm.74463 1.5146q.35459 0 .54961-.36978.19756-.37232.19756-1.1448 0-.65092-.12411-1.0131l-1.1245 2.2643q.17729.26341.50148.26341z"/>
    <path d="m166.04 56.373v.271h-1.9325v-.271h.86114v-2.8468l-.82315.49642-.1393-.23048 1.0106-.62813h.27354v3.209z"/>
    <path d="m168.03 53.116q.54201 0 .82315.46096.28114.45843.28114 1.3272 0 .8738-.28114 1.3322-.28114.45843-.82315.45843-.53948 0-.82315-.45843-.28113-.46096-.28113-1.3322 0-.86874.28113-1.3272.28367-.46096.82315-.46096zm-.74463 1.7881q0 .6028.11144.96498l1.1246-2.239q-.17729-.24061-.49136-.24061-.35205 0-.54961.37232-.19502.36978-.19502 1.1423zm.74463 1.5146q.35459 0 .54961-.36978.19756-.37232.19756-1.1448 0-.65092-.12411-1.0131l-1.1245 2.2643q.17729.26341.50148.26341z"/>
    <path d="m172.12 56.373v.271h-1.9325v-.271h.86114v-2.8468l-.82315.49642-.1393-.23048 1.0106-.62813h.27354v3.209z"/>
    <path d="m175.16 56.373v.271h-1.9325v-.271h.86114v-2.8468l-.82315.49642-.1393-.23048 1.0106-.62813h.27354v3.209z"/>
   </g>
   <g transform="translate(5 12)" fill="#fff" aria-label="0011 0010">
    <path d="m149.79 65.816q.54202 0 .82315.46096.28114.45843.28114 1.3272 0 .8738-.28114 1.3322-.28113.45843-.82315.45843-.53947 0-.82314-.45843-.28114-.46096-.28114-1.3322 0-.86874.28114-1.3272.28367-.46096.82314-.46096zm-.74463 1.7881q0 .6028.11144.96498l1.1246-2.239q-.17729-.24061-.49136-.24061-.35205 0-.54961.37232-.19502.36978-.19502 1.1423zm.74463 1.5146q.35459 0 .54961-.36978.19756-.37232.19756-1.1448 0-.65092-.12411-1.0131l-1.1245 2.2643q.17729.26341.50148.26341z"/>
    <path d="m152.83 65.816q.54202 0 .82315.46096.28114.45843.28114 1.3272 0 .8738-.28114 1.3322-.28113.45843-.82315.45843-.53948 0-.82314-.45843-.28114-.46096-.28114-1.3322 0-.86874.28114-1.3272.28366-.46096.82314-.46096zm-.74463 1.7881q0 .6028.11144.96498l1.1246-2.239q-.17729-.24061-.49136-.24061-.35205 0-.54961.37232-.19502.36978-.19502 1.1423zm.74463 1.5146q.35459 0 .54961-.36978.19756-.37232.19756-1.1448 0-.65092-.12411-1.0131l-1.1245 2.2643q.17729.26341.50148.26341z"/>
    <path d="m156.92 69.073v.27101h-1.9325v-.27101h.86114v-2.8468l-.82315.49642-.1393-.23048 1.0106-.62813h.27354v3.209z"/>
    <path d="m159.96 69.073v.27101h-1.9325v-.27101h.86114v-2.8468l-.82315.49642-.1393-.23048 1.0106-.62813h.27354v3.209z"/>
    <path d="m164.99 65.816q.54201 0 .82315.46096.28114.45843.28114 1.3272 0 .8738-.28114 1.3322t-.82315.45843q-.53948 0-.82315-.45843-.28113-.46096-.28113-1.3322 0-.86874.28113-1.3272.28367-.46096.82315-.46096zm-.74463 1.7881q0 .6028.11144.96498l1.1246-2.239q-.17729-.24061-.49136-.24061-.35205 0-.54961.37232-.19502.36978-.19502 1.1423zm.74463 1.5146q.35459 0 .54961-.36978.19756-.37232.19756-1.1448 0-.65092-.12411-1.0131l-1.1245 2.2643q.17729.26341.50148.26341z"/>
    <path d="m168.03 65.816q.54201 0 .82315.46096.28114.45843.28114 1.3272 0 .8738-.28114 1.3322t-.82315.45843q-.53948 0-.82315-.45843-.28113-.46096-.28113-1.3322 0-.86874.28113-1.3272.28367-.46096.82315-.46096zm-.74463 1.7881q0 .6028.11144.96498l1.1246-2.239q-.17729-.24061-.49136-.24061-.35205 0-.54961.37232-.19502.36978-.19502 1.1423zm.74463 1.5146q.35459 0 .54961-.36978.19756-.37232.19756-1.1448 0-.65092-.12411-1.0131l-1.1245 2.2643q.17729.26341.50148.26341z"/>
    <path d="m172.12 69.073v.27101h-1.9325v-.27101h.86114v-2.8468l-.82315.49642-.1393-.23048 1.0106-.62813h.27354v3.209z"/>
    <path d="m174.1 65.816q.54201 0 .82315.46096.28114.45843.28114 1.3272 0 .8738-.28114 1.3322t-.82315.45843q-.53948 0-.82315-.45843-.28113-.46096-.28113-1.3322 0-.86874.28113-1.3272.28367-.46096.82315-.46096zm-.74463 1.7881q0 .6028.11144.96498l1.1246-2.239q-.1773-.24061-.49136-.24061-.35205 0-.54961.37232-.19502.36978-.19502 1.1423zm.74463 1.5146q.35459 0 .54961-.36978.19756-.37232.19756-1.1448 0-.65092-.12411-1.0131l-1.1246 2.2643q.1773.26341.50149.26341z"/>
   </g>
   <g transform="translate(5 12)" fill="#fff" aria-label="0011 0100">
    <path d="m149.79 78.516q.54202 0 .82315.46096.28114.45843.28114 1.3272 0 .8738-.28114 1.3322-.28113.45843-.82315.45843-.53947 0-.82314-.45843-.28114-.46096-.28114-1.3322 0-.86874.28114-1.3272.28367-.46096.82314-.46096zm-.74463 1.7881q0 .6028.11144.96498l1.1246-2.239q-.17729-.24061-.49136-.24061-.35205 0-.54961.37232-.19502.36978-.19502 1.1423zm.74463 1.5146q.35459 0 .54961-.36978.19756-.37232.19756-1.1448 0-.65092-.12411-1.0131l-1.1245 2.2643q.17729.26341.50148.26341z"/>
    <path d="m152.83 78.516q.54202 0 .82315.46096.28114.45843.28114 1.3272 0 .8738-.28114 1.3322-.28113.45843-.82315.45843-.53948 0-.82314-.45843-.28114-.46096-.28114-1.3322 0-.86874.28114-1.3272.28366-.46096.82314-.46096zm-.74463 1.7881q0 .6028.11144.96498l1.1246-2.239q-.17729-.24061-.49136-.24061-.35205 0-.54961.37232-.19502.36978-.19502 1.1423zm.74463 1.5146q.35459 0 .54961-.36978.19756-.37232.19756-1.1448 0-.65092-.12411-1.0131l-1.1245 2.2643q.17729.26341.50148.26341z"/>
    <path d="m156.92 81.773v.27101h-1.9325v-.27101h.86114v-2.8468l-.82315.49642-.1393-.23048 1.0106-.62813h.27354v3.209z"/>
    <path d="m159.96 81.773v.27101h-1.9325v-.27101h.86114v-2.8468l-.82315.49642-.1393-.23048 1.0106-.62813h.27354v3.209z"/>
    <path d="m164.99 78.516q.54201 0 .82315.46096.28114.45843.28114 1.3272 0 .8738-.28114 1.3322t-.82315.45843q-.53948 0-.82315-.45843-.28113-.46096-.28113-1.3322 0-.86874.28113-1.3272.28367-.46096.82315-.46096zm-.74463 1.7881q0 .6028.11144.96498l1.1246-2.239q-.17729-.24061-.49136-.24061-.35205 0-.54961.37232-.19502.36978-.19502 1.1423zm.74463 1.5146q.35459 0 .54961-.36978.19756-.37232.19756-1.1448 0-.65092-.12411-1.0131l-1.1245 2.2643q.17729.26341.50148.26341z"/>
    <path d="m169.08 81.773v.27101h-1.9325v-.27101h.86114v-2.8468l-.82315.49642-.1393-.23048 1.0106-.62813h.27354v3.209z"/>
    <path d="m171.06 78.516q.54201 0 .82315.46096.28114.45843.28114 1.3272 0 .8738-.28114 1.3322t-.82315.45843q-.53948 0-.82315-.45843-.28113-.46096-.28113-1.3322 0-.86874.28113-1.3272.28367-.46096.82315-.46096zm-.74463 1.7881q0 .6028.11144.96498l1.1246-2.239q-.1773-.24061-.49136-.24061-.35205 0-.54961.37232-.19502.36978-.19502 1.1423zm.74463 1.5146q.35459 0 .54961-.36978.19756-.37232.19756-1.1448 0-.65092-.12411-1.0131l-1.1246 2.2643q.1773.26341.50149.26341z"/>
    <path d="m174.1 78.516q.54201 0 .82315.46096.28114.45843.28114 1.3272 0 .8738-.28114 1.3322t-.82315.45843q-.53948 0-.82315-.45843-.28113-.46096-.28113-1.3322 0-.86874.28113-1.3272.28367-.46096.82315-.46096zm-.74463 1.7881q0 .6028.11144.96498l1.1246-2.239q-.1773-.24061-.49136-.24061-.35205 0-.54961.37232-.19502.36978-.19502 1.1423zm.74463 1.5146q.35459 0 .54961-.36978.19756-.37232.19756-1.1448 0-.65092-.12411-1.0131l-1.1246 2.2643q.1773.26341.50149.26341z"/>
   </g>
   <g transform="translate(5 12)" fill="#fff" aria-label="0011 1101">
    <path d="m149.79 91.216q.54202 0 .82315.46096.28114.45843.28114 1.3272 0 .8738-.28114 1.3322-.28113.45843-.82315.45843-.53947 0-.82314-.45843-.28114-.46096-.28114-1.3322 0-.86874.28114-1.3272.28367-.46096.82314-.46096zm-.74463 1.7881q0 .6028.11144.96498l1.1246-2.239q-.17729-.24061-.49136-.24061-.35205 0-.54961.37232-.19502.36978-.19502 1.1423zm.74463 1.5146q.35459 0 .54961-.36978.19756-.37232.19756-1.1448 0-.65092-.12411-1.0131l-1.1245 2.2643q.17729.26341.50148.26341z"/>
    <path d="m152.83 91.216q.54202 0 .82315.46096.28114.45843.28114 1.3272 0 .8738-.28114 1.3322-.28113.45843-.82315.45843-.53948 0-.82314-.45843-.28114-.46096-.28114-1.3322 0-.86874.28114-1.3272.28366-.46096.82314-.46096zm-.74463 1.7881q0 .6028.11144.96498l1.1246-2.239q-.17729-.24061-.49136-.24061-.35205 0-.54961.37232-.19502.36978-.19502 1.1423zm.74463 1.5146q.35459 0 .54961-.36978.19756-.37232.19756-1.1448 0-.65092-.12411-1.0131l-1.1245 2.2643q.17729.26341.50148.26341z"/>
    <path d="m156.92 94.473v.27101h-1.9325v-.27101h.86114v-2.8468l-.82315.49642-.1393-.23048 1.0106-.62813h.27354v3.209z"/>
    <path d="m159.96 94.473v.27101h-1.9325v-.27101h.86114v-2.8468l-.82315.49642-.1393-.23048 1.0106-.62813h.27354v3.209z"/>
    <path d="m166.04 94.473v.27101h-1.9325v-.27101h.86114v-2.8468l-.82315.49642-.1393-.23048 1.0106-.62813h.27354v3.209z"/>
    <path d="m169.08 94.473v.27101h-1.9325v-.27101h.86114v-2.8468l-.82315.49642-.1393-.23048 1.0106-.62813h.27354v3.209z"/>
    <path d="m171.06 91.216q.54201 0 .82315.46096.28114.45843.28114 1.3272 0 .8738-.28114 1.3322t-.82315.45843q-.53948 0-.82315-.45843-.28113-.46096-.28113-1.3322 0-.86874.28113-1.3272.28367-.46096.82315-.46096zm-.74463 1.7881q0 .6028.11144.96498l1.1246-2.239q-.1773-.24061-.49136-.24061-.35205 0-.54961.37232-.19502.36978-.19502 1.1423zm.74463 1.5146q.35459 0 .54961-.36978.19756-.37232.19756-1.1448 0-.65092-.12411-1.0131l-1.1246 2.2643q.1773.26341.50149.26341z"/>
    <path d="m175.16 94.473v.27101h-1.9325v-.27101h.86114v-2.8468l-.82315.49642-.1393-.23048 1.0106-.62813h.27354v3.209z"/>
   </g>
   <g transform="translate(5 12)" fill="#fff" aria-label="0100 0001">
    <path d="m149.79 103.92q.54202 0 .82315.46097.28114.45843.28114 1.3272 0 .87381-.28114 1.3322-.28113.45843-.82315.45843-.53947 0-.82314-.45843-.28114-.46096-.28114-1.3322 0-.86873.28114-1.3272.28367-.46097.82314-.46097zm-.74463 1.7881q0 .6028.11144.96499l1.1246-2.239q-.17729-.24061-.49136-.24061-.35205 0-.54961.37232-.19502.36978-.19502 1.1423zm.74463 1.5146q.35459 0 .54961-.36979.19756-.37231.19756-1.1448 0-.65092-.12411-1.0131l-1.1245 2.2643q.17729.26341.50148.26341z"/>
    <path d="m153.88 107.17v.271h-1.9325v-.271h.86114v-2.8468l-.82315.49642-.1393-.23048 1.0106-.62812h.27354v3.209z"/>
    <path d="m155.87 103.92q.54201 0 .82315.46097.28114.45843.28114 1.3272 0 .87381-.28114 1.3322t-.82315.45843q-.53948 0-.82314-.45843-.28114-.46096-.28114-1.3322 0-.86873.28114-1.3272.28366-.46097.82314-.46097zm-.74463 1.7881q0 .6028.11144.96499l1.1246-2.239q-.17729-.24061-.49136-.24061-.35205 0-.54961.37232-.19502.36978-.19502 1.1423zm.74463 1.5146q.35459 0 .54961-.36979.19756-.37231.19756-1.1448 0-.65092-.12411-1.0131l-1.1245 2.2643q.17729.26341.50148.26341z"/>
    <path d="m158.91 103.92q.54201 0 .82315.46097.28114.45843.28114 1.3272 0 .87381-.28114 1.3322t-.82315.45843q-.53948 0-.82315-.45843-.28113-.46096-.28113-1.3322 0-.86873.28113-1.3272.28367-.46097.82315-.46097zm-.74463 1.7881q0 .6028.11144.96499l1.1246-2.239q-.17729-.24061-.49136-.24061-.35205 0-.54961.37232-.19502.36978-.19502 1.1423zm.74463 1.5146q.35459 0 .54961-.36979.19756-.37231.19756-1.1448 0-.65092-.12411-1.0131l-1.1245 2.2643q.17729.26341.50148.26341z"/>
    <path d="m164.99 103.92q.54201 0 .82315.46097.28114.45843.28114 1.3272 0 .87381-.28114 1.3322t-.82315.45843q-.53948 0-.82315-.45843-.28113-.46096-.28113-1.3322 0-.86873.28113-1.3272.28367-.46097.82315-.46097zm-.74463 1.7881q0 .6028.11144.96499l1.1246-2.239q-.17729-.24061-.49136-.24061-.35205 0-.54961.37232-.19502.36978-.19502 1.1423zm.74463 1.5146q.35459 0 .54961-.36979.19756-.37231.19756-1.1448 0-.65092-.12411-1.0131l-1.1245 2.2643q.17729.26341.50148.26341z"/>
    <path d="m168.03 103.92q.54201 0 .82315.46097.28114.45843.28114 1.3272 0 .87381-.28114 1.3322t-.82315.45843q-.53948 0-.82315-.45843-.28113-.46096-.28113-1.3322 0-.86873.28113-1.3272.28367-.46097.82315-.46097zm-.74463 1.7881q0 .6028.11144.96499l1.1246-2.239q-.17729-.24061-.49136-.24061-.35205 0-.54961.37232-.19502.36978-.19502 1.1423zm.74463 1.5146q.35459 0 .54961-.36979.19756-.37231.19756-1.1448 0-.65092-.12411-1.0131l-1.1245 2.2643q.17729.26341.50148.26341z"/>
    <path d="m171.06 103.92q.54201 0 .82315.46097.28114.45843.28114 1.3272 0 .87381-.28114 1.3322t-.82315.45843q-.53948 0-.82315-.45843-.28113-.46096-.28113-1.3322 0-.86873.28113-1.3272.28367-.46097.82315-.46097zm-.74463 1.7881q0 .6028.11144.96499l1.1246-2.239q-.1773-.24061-.49136-.24061-.35205 0-.54961.37232-.19502.36978-.19502 1.1423zm.74463 1.5146q.35459 0 .54961-.36979.19756-.37231.19756-1.1448 0-.65092-.12411-1.0131l-1.1246 2.2643q.1773.26341.50149.26341z"/>
    <path d="m175.16 107.17v.271h-1.9325v-.271h.86114v-2.8468l-.82315.49642-.1393-.23048 1.0106-.62812h.27354v3.209z"/>
   </g>
   <g transform="translate(5 12)" fill="#fff" aria-label="0100 1000">
    <path d="m149.79 116.62q.54202 0 .82315.46097.28114.45843.28114 1.3272 0 .87381-.28114 1.3322-.28113.45843-.82315.45843-.53947 0-.82314-.45843-.28114-.46097-.28114-1.3322 0-.86873.28114-1.3272.28367-.46097.82314-.46097zm-.74463 1.7881q0 .6028.11144.96499l1.1246-2.239q-.17729-.24061-.49136-.24061-.35205 0-.54961.37232-.19502.36978-.19502 1.1423zm.74463 1.5146q.35459 0 .54961-.36979.19756-.37231.19756-1.1448 0-.65092-.12411-1.0131l-1.1245 2.2643q.17729.26341.50148.26341z"/>
    <path d="m153.88 119.87v.271h-1.9325v-.271h.86114v-2.8468l-.82315.49642-.1393-.23048 1.0106-.62812h.27354v3.209z"/>
    <path d="m155.87 116.62q.54201 0 .82315.46097.28114.45843.28114 1.3272 0 .87381-.28114 1.3322t-.82315.45843q-.53948 0-.82314-.45843-.28114-.46097-.28114-1.3322 0-.86873.28114-1.3272.28366-.46097.82314-.46097zm-.74463 1.7881q0 .6028.11144.96499l1.1246-2.239q-.17729-.24061-.49136-.24061-.35205 0-.54961.37232-.19502.36978-.19502 1.1423zm.74463 1.5146q.35459 0 .54961-.36979.19756-.37231.19756-1.1448 0-.65092-.12411-1.0131l-1.1245 2.2643q.17729.26341.50148.26341z"/>
    <path d="m158.91 116.62q.54201 0 .82315.46097.28114.45843.28114 1.3272 0 .87381-.28114 1.3322t-.82315.45843q-.53948 0-.82315-.45843-.28113-.46097-.28113-1.3322 0-.86873.28113-1.3272.28367-.46097.82315-.46097zm-.74463 1.7881q0 .6028.11144.96499l1.1246-2.239q-.17729-.24061-.49136-.24061-.35205 0-.54961.37232-.19502.36978-.19502 1.1423zm.74463 1.5146q.35459 0 .54961-.36979.19756-.37231.19756-1.1448 0-.65092-.12411-1.0131l-1.1245 2.2643q.17729.26341.50148.26341z"/>
    <path d="m166.04 119.87v.271h-1.9325v-.271h.86114v-2.8468l-.82315.49642-.1393-.23048 1.0106-.62812h.27354v3.209z"/>
    <path d="m168.03 116.62q.54201 0 .82315.46097.28114.45843.28114 1.3272 0 .87381-.28114 1.3322t-.82315.45843q-.53948 0-.82315-.45843-.28113-.46097-.28113-1.3322 0-.86873.28113-1.3272.28367-.46097.82315-.46097zm-.74463 1.7881q0 .6028.11144.96499l1.1246-2.239q-.17729-.24061-.49136-.24061-.35205 0-.54961.37232-.19502.36978-.19502 1.1423zm.74463 1.5146q.35459 0 .54961-.36979.19756-.37231.19756-1.1448 0-.65092-.12411-1.0131l-1.1245 2.2643q.17729.26341.50148.26341z"/>
    <path d="m171.06 116.62q.54201 0 .82315.46097.28114.45843.28114 1.3272 0 .87381-.28114 1.3322t-.82315.45843q-.53948 0-.82315-.45843-.28113-.46097-.28113-1.3322 0-.86873.28113-1.3272.28367-.46097.82315-.46097zm-.74463 1.7881q0 .6028.11144.96499l1.1246-2.239q-.1773-.24061-.49136-.24061-.35205 0-.54961.37232-.19502.36978-.19502 1.1423zm.74463 1.5146q.35459 0 .54961-.36979.19756-.37231.19756-1.1448 0-.65092-.12411-1.0131l-1.1246 2.2643q.1773.26341.50149.26341z"/>
    <path d="m174.1 116.62q.54201 0 .82315.46097.28114.45843.28114 1.3272 0 .87381-.28114 1.3322t-.82315.45843q-.53948 0-.82315-.45843-.28113-.46097-.28113-1.3322 0-.86873.28113-1.3272.28367-.46097.82315-.46097zm-.74463 1.7881q0 .6028.11144.96499l1.1246-2.239q-.1773-.24061-.49136-.24061-.35205 0-.54961.37232-.19502.36978-.19502 1.1423zm.74463 1.5146q.35459 0 .54961-.36979.19756-.37231.19756-1.1448 0-.65092-.12411-1.0131l-1.1246 2.2643q.1773.26341.50149.26341z"/>
   </g>
   <g transform="translate(5 12)" aria-label="a">
    <path d="m49.853 132.32q0 .15703.05319.23555.05319.076.17476.11144l-.08611.23048q-.1621-.0253-.2786-.11651-.11398-.0937-.15956-.26594-.1393.1849-.34952.28367-.20769.0962-.47109.0962-.26088 0-.45336-.0988-.18996-.10131-.29127-.2862-.10131-.18489-.10131-.4331 0-.40525.3166-.62053.3166-.21529.91686-.21529h.40271v-.25834q0-.29886-.17223-.43057-.1697-.1317-.49389-.1317-.30646 0-.68131.13424l-.09118-.25835q.23048-.0861.42804-.12157.19756-.038.39004-.038.30646 0 .51922.10384.21275.10385.31913.29127.10891.18742.10891.4407zm-1.0562.3242q.21528 0 .40524-.10638.18996-.10638.32419-.29633v-.75983h-.4407q-.45083 0-.65092.15703-.19756.15703-.19756.4483 0 .2786.13677.4179.1393.13931.42297.13931z" fill="#fff" stroke-width=".3"/>
   </g>
   <g transform="translate(5 12)" fill="#fff" aria-label="97">
    <path d="m102.83 129.32q.53694 0 .81301.37738.27861.37739.27861 1.0562 0 .70411-.17983 1.1094-.17729.40524-.54708.63825-.36978.23049-1.0486.43311l-.0785-.25328q.52429-.14943.84848-.34446.32419-.19755.49136-.49642.16716-.29886.17476-.74716-.1545.21022-.36472.32926t-.47363.11904q-.2938 0-.52175-.13171-.22541-.1317-.35205-.38244-.12411-.25075-.12411-.5952 0-.35966.14184-.6104.14437-.25074.39004-.37485.24568-.12664.55215-.12664zm-.0583 1.9477q.25328 0 .44577-.13424.19502-.13423.37485-.39764-.008-.41791-.0963-.66612-.0886-.25074-.25327-.35965-.1621-.11144-.41031-.11144-.37485 0-.56481.22035-.18995.21781-.18995.63825 0 .81049.69397.81049z"/>
    <path d="m105.25 132.8 1.3728-3.1533h-1.664v-.2786h1.9806v.26087l-1.4006 3.2571z"/>
   </g>
   <g transform="translate(5 12)" fill="#fff" aria-label="0110 0001">
    <path d="m149.79 129.32q.54202 0 .82315.46097.28114.45843.28114 1.3272 0 .8738-.28114 1.3322-.28113.45843-.82315.45843-.53947 0-.82314-.45843-.28114-.46096-.28114-1.3322 0-.86874.28114-1.3272.28367-.46097.82314-.46097zm-.74463 1.7881q0 .60279.11144.96498l1.1246-2.239q-.17729-.24062-.49136-.24062-.35205 0-.54961.37232-.19502.36978-.19502 1.1423zm.74463 1.5146q.35459 0 .54961-.36978.19756-.37232.19756-1.1448 0-.65092-.12411-1.0131l-1.1245 2.2643q.17729.26341.50148.26341z"/>
    <path d="m153.88 132.57v.271h-1.9325v-.271h.86114v-2.8468l-.82315.49642-.1393-.23048 1.0106-.62812h.27354v3.209z"/>
    <path d="m156.92 132.57v.271h-1.9325v-.271h.86114v-2.8468l-.82315.49642-.1393-.23048 1.0106-.62812h.27354v3.209z"/>
    <path d="m158.91 129.32q.54201 0 .82315.46097.28114.45843.28114 1.3272 0 .8738-.28114 1.3322t-.82315.45843q-.53948 0-.82315-.45843-.28113-.46096-.28113-1.3322 0-.86874.28113-1.3272.28367-.46097.82315-.46097zm-.74463 1.7881q0 .60279.11144.96498l1.1246-2.239q-.17729-.24062-.49136-.24062-.35205 0-.54961.37232-.19502.36978-.19502 1.1423zm.74463 1.5146q.35459 0 .54961-.36978.19756-.37232.19756-1.1448 0-.65092-.12411-1.0131l-1.1245 2.2643q.17729.26341.50148.26341z"/>
    <path d="m164.99 129.32q.54201 0 .82315.46097.28114.45843.28114 1.3272 0 .8738-.28114 1.3322t-.82315.45843q-.53948 0-.82315-.45843-.28113-.46096-.28113-1.3322 0-.86874.28113-1.3272.28367-.46097.82315-.46097zm-.74463 1.7881q0 .60279.11144.96498l1.1246-2.239q-.17729-.24062-.49136-.24062-.35205 0-.54961.37232-.19502.36978-.19502 1.1423zm.74463 1.5146q.35459 0 .54961-.36978.19756-.37232.19756-1.1448 0-.65092-.12411-1.0131l-1.1245 2.2643q.17729.26341.50148.26341z"/>
    <path d="m168.03 129.32q.54201 0 .82315.46097.28114.45843.28114 1.3272 0 .8738-.28114 1.3322t-.82315.45843q-.53948 0-.82315-.45843-.28113-.46096-.28113-1.3322 0-.86874.28113-1.3272.28367-.46097.82315-.46097zm-.74463 1.7881q0 .60279.11144.96498l1.1246-2.239q-.17729-.24062-.49136-.24062-.35205 0-.54961.37232-.19502.36978-.19502 1.1423zm.74463 1.5146q.35459 0 .54961-.36978.19756-.37232.19756-1.1448 0-.65092-.12411-1.0131l-1.1245 2.2643q.17729.26341.50148.26341z"/>
    <path d="m171.06 129.32q.54201 0 .82315.46097.28114.45843.28114 1.3272 0 .8738-.28114 1.3322t-.82315.45843q-.53948 0-.82315-.45843-.28113-.46096-.28113-1.3322 0-.86874.28113-1.3272.28367-.46097.82315-.46097zm-.74463 1.7881q0 .60279.11144.96498l1.1246-2.239q-.1773-.24062-.49136-.24062-.35205 0-.54961.37232-.19502.36978-.19502 1.1423zm.74463 1.5146q.35459 0 .54961-.36978.19756-.37232.19756-1.1448 0-.65092-.12411-1.0131l-1.1246 2.2643q.1773.26341.50149.26341z"/>
    <path d="m175.16 132.57v.271h-1.9325v-.271h.86114v-2.8468l-.82315.49642-.1393-.23048 1.0106-.62812h.27354v3.209z"/>
   </g>
   <g transform="translate(5 12)" aria-label="e">
    <path d="m48.275 144.34q.0051.32166.11651.53948.11144.21529.2938.32166.18489.10385.41031.10385.20262 0 .36472-.0583.16463-.0582.35205-.18742l.16463.23554q-.18236.14184-.41537.22036-.23048.0785-.45336.0785-.36218 0-.62812-.16969-.26341-.17223-.40271-.48376t-.1393-.72437q0-.40271.1393-.71424.14184-.31406.39764-.48883.25581-.17729.58507-.17729.31913 0 .55214.15703.23302.1545.35459.44577.12411.28873.12411.68385 0 .0582-.0076.21781zm.79276-1.2107q-.22035 0-.39258.10384-.1697.10132-.27354.309-.10384.20769-.12157.51415h1.5121q-.01013-.45589-.20515-.69144-.19502-.23555-.51922-.23555z" fill="#fff" stroke-width=".3"/>
   </g>
   <g transform="translate(5 12)" fill="#fff" aria-label="101">
    <path d="m102.43 145.27v.27101h-1.9325v-.27101h.86114v-2.8468l-.82315.49643-.1393-.23049 1.0106-.62812h.27354v3.209z"/>
    <path d="m104.42 142.02q.54201 0 .82315.46096.28114.45843.28114 1.3272 0 .8738-.28114 1.3322t-.82315.45843q-.53948 0-.82315-.45843-.28113-.46096-.28113-1.3322 0-.86874.28113-1.3272.28367-.46096.82315-.46096zm-.74463 1.7881q0 .6028.11144.96498l1.1246-2.239q-.1773-.24062-.49136-.24062-.35205 0-.54961.37232-.19502.36978-.19502 1.1423zm.74463 1.5146q.35459 0 .54961-.36978.19756-.37232.19756-1.1448 0-.65092-.12411-1.0131l-1.1246 2.2643q.1773.26341.50149.26341z"/>
    <path d="m108.51 145.27v.27101h-1.9325v-.27101h.86114v-2.8468l-.82315.49643-.1393-.23049 1.0106-.62812h.27354v3.209z"/>
   </g>
   <g transform="translate(5 12)" fill="#fff" aria-label="0110 0101">
    <path d="m149.79 142.02q.54202 0 .82315.46096.28114.45843.28114 1.3272 0 .8738-.28114 1.3322-.28113.45843-.82315.45843-.53947 0-.82314-.45843-.28114-.46096-.28114-1.3322 0-.86874.28114-1.3272.28367-.46096.82314-.46096zm-.74463 1.7881q0 .6028.11144.96498l1.1246-2.239q-.17729-.24062-.49136-.24062-.35205 0-.54961.37232-.19502.36978-.19502 1.1423zm.74463 1.5146q.35459 0 .54961-.36978.19756-.37232.19756-1.1448 0-.65092-.12411-1.0131l-1.1245 2.2643q.17729.26341.50148.26341z"/>
    <path d="m153.88 145.27v.27101h-1.9325v-.27101h.86114v-2.8468l-.82315.49643-.1393-.23049 1.0106-.62812h.27354v3.209z"/>
    <path d="m156.92 145.27v.27101h-1.9325v-.27101h.86114v-2.8468l-.82315.49643-.1393-.23049 1.0106-.62812h.27354v3.209z"/>
    <path d="m158.91 142.02q.54201 0 .82315.46096.28114.45843.28114 1.3272 0 .8738-.28114 1.3322t-.82315.45843q-.53948 0-.82315-.45843-.28113-.46096-.28113-1.3322 0-.86874.28113-1.3272.28367-.46096.82315-.46096zm-.74463 1.7881q0 .6028.11144.96498l1.1246-2.239q-.17729-.24062-.49136-.24062-.35205 0-.54961.37232-.19502.36978-.19502 1.1423zm.74463 1.5146q.35459 0 .54961-.36978.19756-.37232.19756-1.1448 0-.65092-.12411-1.0131l-1.1245 2.2643q.17729.26341.50148.26341z"/>
    <path d="m164.99 142.02q.54201 0 .82315.46096.28114.45843.28114 1.3272 0 .8738-.28114 1.3322t-.82315.45843q-.53948 0-.82315-.45843-.28113-.46096-.28113-1.3322 0-.86874.28113-1.3272.28367-.46096.82315-.46096zm-.74463 1.7881q0 .6028.11144.96498l1.1246-2.239q-.17729-.24062-.49136-.24062-.35205 0-.54961.37232-.19502.36978-.19502 1.1423zm.74463 1.5146q.35459 0 .54961-.36978.19756-.37232.19756-1.1448 0-.65092-.12411-1.0131l-1.1245 2.2643q.17729.26341.50148.26341z"/>
    <path d="m169.08 145.27v.27101h-1.9325v-.27101h.86114v-2.8468l-.82315.49643-.1393-.23049 1.0106-.62812h.27354v3.209z"/>
    <path d="m171.06 142.02q.54201 0 .82315.46096.28114.45843.28114 1.3272 0 .8738-.28114 1.3322t-.82315.45843q-.53948 0-.82315-.45843-.28113-.46096-.28113-1.3322 0-.86874.28113-1.3272.28367-.46096.82315-.46096zm-.74463 1.7881q0 .6028.11144.96498l1.1246-2.239q-.1773-.24062-.49136-.24062-.35205 0-.54961.37232-.19502.36978-.19502 1.1423zm.74463 1.5146q.35459 0 .54961-.36978.19756-.37232.19756-1.1448 0-.65092-.12411-1.0131l-1.1246 2.2643q.1773.26341.50149.26341z"/>
    <path d="m175.16 145.27v.27101h-1.9325v-.27101h.86114v-2.8468l-.82315.49643-.1393-.23049 1.0106-.62812h.27354v3.209z"/>
   </g>
   <g transform="translate(5 12)" aria-label="l">
    <path d="m48.976 157.64q0 .19756.1241.28873.12664.0912.34446.0912.22288 0 .46856-.0962l.09118.24314q-.10891.0557-.26341.0912-.15196.0355-.32673.0355-.21275 0-.38498-.076-.1697-.0785-.26847-.22542-.09878-.14943-.09878-.35205v-2.8595h-.82568v-.27354h1.1397z" fill="#fff" stroke-width=".3"/>
   </g>
   <g transform="translate(5 12)" fill="#fff" aria-label="108">
    <path d="m102.43 157.97v.27101h-1.9325v-.27101h.86114v-2.8468l-.82315.49642-.1393-.23048 1.0106-.62813h.27354v3.209z"/>
    <path d="m104.42 154.72q.54201 0 .82315.46096.28114.45843.28114 1.3272 0 .8738-.28114 1.3322t-.82315.45843q-.53948 0-.82315-.45843-.28113-.46096-.28113-1.3322 0-.86874.28113-1.3272.28367-.46096.82315-.46096zm-.74463 1.7881q0 .6028.11144.96498l1.1246-2.239q-.1773-.24061-.49136-.24061-.35205 0-.54961.37231-.19502.36979-.19502 1.1423zm.74463 1.5146q.35459 0 .54961-.36978.19756-.37232.19756-1.1448 0-.65092-.12411-1.0131l-1.1246 2.2643q.1773.26341.50149.26341z"/>
    <path d="m108.47 155.59q0 .24821-.15703.43817-.15703.18742-.46603.35712.35206.13424.55721.37232.20769.23808.20769.5572 0 .28621-.1469.50909-.14437.22288-.40778.34699-.26341.1241-.60533.1241-.34952 0-.61039-.12663-.25835-.12664-.39765-.34699-.13677-.22289-.13677-.50149 0-.31406.18489-.53695.1849-.22288.52935-.38244-.2862-.12411-.43057-.31407-.14183-.19249-.14183-.47869 0-.3014.15956-.50149.1621-.20262.39511-.29633.23302-.0937.45337-.0937.24568 0 .47869.0912t.38245.28873q.15196.19756.15196.49389zm-1.702.0253q0 .20262.0886.32419.0912.11904.23808.18489.14943.0659.44324.15704l.0709.0228q.19249-.10131.30647-.19502.11397-.0937.17476-.21529.0608-.1241.0608-.29633 0-.2862-.18489-.45083-.18236-.16463-.50908-.16463-.3242 0-.50656.16969-.18235.16717-.18235.4635zm1.5019 1.7071q0-.22795-.1165-.37231-.11651-.14437-.3014-.23049-.18489-.0861-.52935-.20262l-.0658-.0228q-.27607.11651-.44323.31153-.16463.19502-.16463.52935 0 .32419.20262.50402.20262.17729.59013.17729.25834 0 .44577-.0887.18742-.0886.28367-.24568.0988-.15703.0988-.35965z"/>
   </g>
   <g transform="translate(5 12)" fill="#fff" aria-label="0110 1100">
    <path d="m149.79 154.72q.54202 0 .82315.46096.28114.45843.28114 1.3272 0 .8738-.28114 1.3322-.28113.45843-.82315.45843-.53947 0-.82314-.45843-.28114-.46096-.28114-1.3322 0-.86874.28114-1.3272.28367-.46096.82314-.46096zm-.74463 1.7881q0 .6028.11144.96498l1.1246-2.239q-.17729-.24061-.49136-.24061-.35205 0-.54961.37231-.19502.36979-.19502 1.1423zm.74463 1.5146q.35459 0 .54961-.36978.19756-.37232.19756-1.1448 0-.65092-.12411-1.0131l-1.1245 2.2643q.17729.26341.50148.26341z"/>
    <path d="m153.88 157.97v.27101h-1.9325v-.27101h.86114v-2.8468l-.82315.49642-.1393-.23048 1.0106-.62813h.27354v3.209z"/>
    <path d="m156.92 157.97v.27101h-1.9325v-.27101h.86114v-2.8468l-.82315.49642-.1393-.23048 1.0106-.62813h.27354v3.209z"/>
    <path d="m158.91 154.72q.54201 0 .82315.46096.28114.45843.28114 1.3272 0 .8738-.28114 1.3322t-.82315.45843q-.53948 0-.82315-.45843-.28113-.46096-.28113-1.3322 0-.86874.28113-1.3272.28367-.46096.82315-.46096zm-.74463 1.7881q0 .6028.11144.96498l1.1246-2.239q-.17729-.24061-.49136-.24061-.35205 0-.54961.37231-.19502.36979-.19502 1.1423zm.74463 1.5146q.35459 0 .54961-.36978.19756-.37232.19756-1.1448 0-.65092-.12411-1.0131l-1.1245 2.2643q.17729.26341.50148.26341z"/>
    <path d="m166.04 157.97v.27101h-1.9325v-.27101h.86114v-2.8468l-.82315.49642-.1393-.23048 1.0106-.62813h.27354v3.209z"/>
    <path d="m169.08 157.97v.27101h-1.9325v-.27101h.86114v-2.8468l-.82315.49642-.1393-.23048 1.0106-.62813h.27354v3.209z"/>
    <path d="m171.06 154.72q.54201 0 .82315.46096.28114.45843.28114 1.3272 0 .8738-.28114 1.3322t-.82315.45843q-.53948 0-.82315-.45843-.28113-.46096-.28113-1.3322 0-.86874.28113-1.3272.28367-.46096.82315-.46096zm-.74463 1.7881q0 .6028.11144.96498l1.1246-2.239q-.1773-.24061-.49136-.24061-.35205 0-.54961.37231-.19502.36979-.19502 1.1423zm.74463 1.5146q.35459 0 .54961-.36978.19756-.37232.19756-1.1448 0-.65092-.12411-1.0131l-1.1246 2.2643q.1773.26341.50149.26341z"/>
    <path d="m174.1 154.72q.54201 0 .82315.46096.28114.45843.28114 1.3272 0 .8738-.28114 1.3322t-.82315.45843q-.53948 0-.82315-.45843-.28113-.46096-.28113-1.3322 0-.86874.28113-1.3272.28367-.46096.82315-.46096zm-.74463 1.7881q0 .6028.11144.96498l1.1246-2.239q-.1773-.24061-.49136-.24061-.35205 0-.54961.37231-.19502.36979-.19502 1.1423zm.74463 1.5146q.35459 0 .54961-.36978.19756-.37232.19756-1.1448 0-.65092-.12411-1.0131l-1.1246 2.2643q.1773.26341.50149.26341z"/>
   </g>
   <g transform="translate(5 12)" aria-label="m">
    <path d="m49.736 161.89q.50402 0 .50402.72437v1.9832h-.309v-1.9224q0-.21782-.01266-.32419-.01266-.10638-.06079-.15957-.04812-.0532-.15197-.0532-.14184 0-.27607.0887-.1317.0887-.24568.27354v2.0971h-.34952v-1.9224q0-.21782-.01266-.32419-.01266-.10638-.06079-.15957-.04812-.0532-.15197-.0532-.29887 0-.52175.36219v2.0971h-.30393v-2.6594h.25834l.01773.32166q.12157-.17223.25834-.27101.1393-.0988.32673-.0988.39258 0 .50655.36219.11398-.17729.24821-.26847.13677-.0937.33686-.0937z" fill="#fff" stroke-width=".3"/>
   </g>
   <g transform="translate(5 12)" fill="#fff" aria-label="109">
    <path d="m102.43 164.32v.27101h-1.9325v-.27101h.86114v-2.8468l-.82315.49642-.1393-.23048 1.0106-.62813h.27354v3.209z"/>
    <path d="m104.42 161.07q.54201 0 .82315.46096.28114.45843.28114 1.3272 0 .8738-.28114 1.3322t-.82315.45843q-.53948 0-.82315-.45843-.28113-.46096-.28113-1.3322 0-.86874.28113-1.3272.28367-.46096.82315-.46096zm-.74463 1.7881q0 .6028.11144.96498l1.1246-2.239q-.1773-.24061-.49136-.24061-.35205 0-.54961.37231-.19502.36979-.19502 1.1423zm.74463 1.5146q.35459 0 .54961-.36978.19756-.37232.19756-1.1448 0-.65092-.12411-1.0131l-1.1246 2.2643q.1773.2634.50149.2634z"/>
    <path d="m107.39 161.07q.53695 0 .81302.37738.2786.37738.2786 1.0562 0 .70411-.17982 1.1094-.1773.40524-.54708.63826-.36978.23048-1.0486.4331l-.0785-.25328q.52428-.14943.84847-.34445.3242-.19756.49136-.49642.16716-.29887.17476-.74717-.1545.21022-.36472.32926t-.47362.11904q-.2938 0-.52175-.1317-.22542-.13171-.35206-.38245-.1241-.25074-.1241-.5952 0-.35965.14183-.6104.14437-.25074.39005-.37485.24568-.12663.55214-.12663zm-.0583 1.9477q.25327 0 .44576-.13423.19503-.13424.37485-.39765-.008-.4179-.0962-.66612-.0887-.25074-.25328-.35965-.1621-.11144-.41031-.11144-.37485 0-.5648.22035-.18996.21782-.18996.63826 0 .81048.69398.81048z"/>
   </g>
   <g transform="translate(5 12)" fill="#fff" aria-label="0110 1101">
    <path d="m149.79 161.07q.54202 0 .82315.46096.28114.45843.28114 1.3272 0 .8738-.28114 1.3322-.28113.45843-.82315.45843-.53947 0-.82314-.45843-.28114-.46096-.28114-1.3322 0-.86874.28114-1.3272.28367-.46096.82314-.46096zm-.74463 1.7881q0 .6028.11144.96498l1.1246-2.239q-.17729-.24061-.49136-.24061-.35205 0-.54961.37231-.19502.36979-.19502 1.1423zm.74463 1.5146q.35459 0 .54961-.36978.19756-.37232.19756-1.1448 0-.65092-.12411-1.0131l-1.1245 2.2643q.17729.2634.50148.2634z"/>
    <path d="m153.88 164.32v.27101h-1.9325v-.27101h.86114v-2.8468l-.82315.49642-.1393-.23048 1.0106-.62813h.27354v3.209z"/>
    <path d="m156.92 164.32v.27101h-1.9325v-.27101h.86114v-2.8468l-.82315.49642-.1393-.23048 1.0106-.62813h.27354v3.209z"/>
    <path d="m158.91 161.07q.54201 0 .82315.46096.28114.45843.28114 1.3272 0 .8738-.28114 1.3322t-.82315.45843q-.53948 0-.82315-.45843-.28113-.46096-.28113-1.3322 0-.86874.28113-1.3272.28367-.46096.82315-.46096zm-.74463 1.7881q0 .6028.11144.96498l1.1246-2.239q-.17729-.24061-.49136-.24061-.35205 0-.54961.37231-.19502.36979-.19502 1.1423zm.74463 1.5146q.35459 0 .54961-.36978.19756-.37232.19756-1.1448 0-.65092-.12411-1.0131l-1.1245 2.2643q.17729.2634.50148.2634z"/>
    <path d="m166.04 164.32v.27101h-1.9325v-.27101h.86114v-2.8468l-.82315.49642-.1393-.23048 1.0106-.62813h.27354v3.209z"/>
    <path d="m169.08 164.32v.27101h-1.9325v-.27101h.86114v-2.8468l-.82315.49642-.1393-.23048 1.0106-.62813h.27354v3.209z"/>
    <path d="m171.06 161.07q.54201 0 .82315.46096.28114.45843.28114 1.3272 0 .8738-.28114 1.3322t-.82315.45843q-.53948 0-.82315-.45843-.28113-.46096-.28113-1.3322 0-.86874.28113-1.3272.28367-.46096.82315-.46096zm-.74463 1.7881q0 .6028.11144.96498l1.1246-2.239q-.1773-.24061-.49136-.24061-.35205 0-.54961.37231-.19502.36979-.19502 1.1423zm.74463 1.5146q.35459 0 .54961-.36978.19756-.37232.19756-1.1448 0-.65092-.12411-1.0131l-1.1246 2.2643q.1773.2634.50149.2634z"/>
    <path d="m175.16 164.32v.27101h-1.9325v-.27101h.86114v-2.8468l-.82315.49642-.1393-.23048 1.0106-.62813h.27354v3.209z"/>
   </g>
   <g transform="translate(5 12)" fill="#9f9393" aria-label="⋮">
    <path d="m48.776 50.294v-.47508h.47508v.47508zm0-1.1889v-.47749h.47508v.47749zm0-1.1913v-.47508h.47508v.47508z"/>
    <path d="m104.18 50.294v-.47508h.47508v.47508zm0-1.1889v-.47749h.47508v.47749zm0-1.1913v-.47508h.47508v.47508z"/>
   </g>
   <g transform="translate(5 12)" fill="#9f9393" aria-label="⋮">
    <path d="m161.71 50.294v-.47508h.47507v.47508zm0-1.1889v-.47749h.47507v.47749zm0-1.1913v-.47508h.47507v.47508z" fill="#9f9393" stroke-width=".3"/>
   </g>
   <g transform="translate(5 12)" fill="#9f9393" aria-label="⋮">
    <path d="m48.776 62.994v-.47508h.47508v.47508zm0-1.1889v-.47749h.47508v.47749zm0-1.1913v-.47508h.47508v.47508z"/>
    <path d="m104.18 62.994v-.47508h.47508v.47508zm0-1.1889v-.47749h.47508v.47749zm0-1.1913v-.47508h.47508v.47508z"/>
   </g>
   <g transform="translate(5 12)" fill="#9f9393" aria-label="⋮">
    <path d="m161.71 62.994v-.47508h.47507v.47508zm0-1.1889v-.47749h.47507v.47749zm0-1.1913v-.47508h.47507v.47508z" fill="#9f9393" stroke-width=".3"/>
   </g>
   <g transform="translate(5 12)" fill="#9f9393" aria-label="⋮">
    <path d="m48.776 62.994v-.47508h.47508v.47508zm0-1.1889v-.47749h.47508v.47749zm0-1.1913v-.47508h.47508v.47508z"/>
    <path d="m104.18 62.994v-.47508h.47508v.47508zm0-1.1889v-.47749h.47508v.47749zm0-1.1913v-.47508h.47508v.47508z"/>
   </g>
   <g transform="translate(5 12)" fill="#9f9393" aria-label="⋮">
    <path d="m161.71 62.994v-.47508h.47507v.47508zm0-1.1889v-.47749h.47507v.47749zm0-1.1913v-.47508h.47507v.47508z" fill="#9f9393" stroke-width=".3"/>
   </g>
   <g transform="translate(5 12)" fill="#9f9393" aria-label="⋮">
    <path d="m48.776 75.694v-.47508h.47508v.47508zm0-1.1889v-.47749h.47508v.47749zm0-1.1913v-.47508h.47508v.47508z"/>
    <path d="m104.18 75.694v-.47508h.47508v.47508zm0-1.1889v-.47749h.47508v.47749zm0-1.1913v-.47508h.47508v.47508z"/>
   </g>
   <g transform="translate(5 12)" fill="#9f9393" aria-label="⋮">
    <path d="m161.71 75.694v-.47508h.47507v.47508zm0-1.1889v-.47749h.47507v.47749zm0-1.1913v-.47508h.47507v.47508z" fill="#9f9393" stroke-width=".3"/>
   </g>
   <g transform="translate(5 12)" fill="#9f9393" aria-label="⋮">
    <path d="m48.776 75.694v-.47508h.47508v.47508zm0-1.1889v-.47749h.47508v.47749zm0-1.1913v-.47508h.47508v.47508z"/>
    <path d="m104.18 75.694v-.47508h.47508v.47508zm0-1.1889v-.47749h.47508v.47749zm0-1.1913v-.47508h.47508v.47508z"/>
   </g>
   <g transform="translate(5 12)" fill="#9f9393" aria-label="⋮">
    <path d="m161.71 75.694v-.47508h.47507v.47508zm0-1.1889v-.47749h.47507v.47749zm0-1.1913v-.47508h.47507v.47508z" fill="#9f9393" stroke-width=".3"/>
   </g>
   <g transform="translate(5 12)" fill="#9f9393" aria-label="⋮">
    <path d="m48.776 88.394v-.47508h.47508v.47508zm0-1.1889v-.47749h.47508v.47749zm0-1.1913v-.47508h.47508v.47508z"/>
    <path d="m104.18 88.394v-.47508h.47508v.47508zm0-1.1889v-.47749h.47508v.47749zm0-1.1913v-.47508h.47508v.47508z"/>
   </g>
   <g transform="translate(5 12)" fill="#9f9393" aria-label="⋮">
    <path d="m161.71 88.394v-.47508h.47507v.47508zm0-1.1889v-.47749h.47507v.47749zm0-1.1913v-.47508h.47507v.47508z" fill="#9f9393" stroke-width=".3"/>
   </g>
   <g transform="translate(5 12)" fill="#9f9393" aria-label="⋮">
    <path d="m48.776 88.394v-.47508h.47508v.47508zm0-1.1889v-.47749h.47508v.47749zm0-1.1913v-.47508h.47508v.47508z"/>
    <path d="m104.18 88.394v-.47508h.47508v.47508zm0-1.1889v-.47749h.47508v.47749zm0-1.1913v-.47508h.47508v.47508z"/>
   </g>
   <g transform="translate(5 12)" fill="#9f9393" aria-label="⋮">
    <path d="m161.71 88.394v-.47508h.47507v.47508zm0-1.1889v-.47749h.47507v.47749zm0-1.1913v-.47508h.47507v.47508z" fill="#9f9393" stroke-width=".3"/>
   </g>
   <g transform="translate(5 12)" fill="#9f9393" aria-label="⋮">
    <path d="m48.776 101.09v-.47508h.47508v.47508zm0-1.1889v-.47749h.47508v.47749zm0-1.1913v-.47508h.47508v.47508z"/>
    <path d="m104.18 101.09v-.47508h.47508v.47508zm0-1.1889v-.47749h.47508v.47749zm0-1.1913v-.47508h.47508v.47508z"/>
   </g>
   <g transform="translate(5 12)" fill="#9f9393" aria-label="⋮">
    <path d="m161.71 101.09v-.47508h.47507v.47508zm0-1.1889v-.47749h.47507v.47749zm0-1.1913v-.47508h.47507v.47508z" fill="#9f9393" stroke-width=".3"/>
   </g>
   <g transform="translate(5 12)" fill="#9f9393" aria-label="⋮">
    <path d="m48.776 101.09v-.47508h.47508v.47508zm0-1.1889v-.47749h.47508v.47749zm0-1.1913v-.47508h.47508v.47508z"/>
    <path d="m104.18 101.09v-.47508h.47508v.47508zm0-1.1889v-.47749h.47508v.47749zm0-1.1913v-.47508h.47508v.47508z"/>
   </g>
   <g transform="translate(5 12)" fill="#9f9393" aria-label="⋮">
    <path d="m161.71 101.09v-.47508h.47507v.47508zm0-1.1889v-.47749h.47507v.47749zm0-1.1913v-.47508h.47507v.47508z" fill="#9f9393" stroke-width=".3"/>
   </g>
   <g transform="translate(5 12)" fill="#9f9393" aria-label="⋮">
    <path d="m48.776 113.79v-.47508h.47508v.47508zm0-1.1889v-.47749h.47508v.47749zm0-1.1913v-.47508h.47508v.47508z"/>
    <path d="m104.18 113.79v-.47508h.47508v.47508zm0-1.1889v-.47749h.47508v.47749zm0-1.1913v-.47508h.47508v.47508z"/>
   </g>
   <g transform="translate(5 12)" fill="#9f9393" aria-label="⋮">
    <path d="m161.71 113.79v-.47508h.47507v.47508zm0-1.1889v-.47749h.47507v.47749zm0-1.1913v-.47508h.47507v.47508z" fill="#9f9393" stroke-width=".3"/>
   </g>
   <g transform="translate(5 12)" fill="#9f9393" aria-label="⋮">
    <path d="m48.776 113.79v-.47508h.47508v.47508zm0-1.1889v-.47749h.47508v.47749zm0-1.1913v-.47508h.47508v.47508z"/>
    <path d="m104.18 113.79v-.47508h.47508v.47508zm0-1.1889v-.47749h.47508v.47749zm0-1.1913v-.47508h.47508v.47508z"/>
   </g>
   <g transform="translate(5 12)" fill="#9f9393" aria-label="⋮">
    <path d="m161.71 113.79v-.47508h.47507v.47508zm0-1.1889v-.47749h.47507v.47749zm0-1.1913v-.47508h.47507v.47508z" fill="#9f9393" stroke-width=".3"/>
   </g>
   <g transform="translate(5 12)" fill="#9f9393" aria-label="⋮">
    <path d="m48.776 126.49v-.47508h.47508v.47508zm0-1.1889v-.47749h.47508v.47749zm0-1.1913v-.47508h.47508v.47508z"/>
    <path d="m104.18 126.49v-.47508h.47508v.47508zm0-1.1889v-.47749h.47508v.47749zm0-1.1913v-.47508h.47508v.47508z"/>
   </g>
   <g transform="translate(5 12)" fill="#9f9393" aria-label="⋮">
    <path d="m161.71 126.49v-.47508h.47507v.47508zm0-1.1889v-.47749h.47507v.47749zm0-1.1913v-.47508h.47507v.47508z" fill="#9f9393" stroke-width=".3"/>
   </g>
   <g transform="translate(5 12)" fill="#9f9393" aria-label="⋮">
    <path d="m48.776 126.49v-.47508h.47508v.47508zm0-1.1889v-.47749h.47508v.47749zm0-1.1913v-.47508h.47508v.47508z"/>
    <path d="m104.18 126.49v-.47508h.47508v.47508zm0-1.1889v-.47749h.47508v.47749zm0-1.1913v-.47508h.47508v.47508z"/>
   </g>
   <g transform="translate(5 12)" fill="#9f9393" aria-label="⋮">
    <path d="m161.71 126.49v-.47508h.47507v.47508zm0-1.1889v-.47749h.47507v.47749zm0-1.1913v-.47508h.47507v.47508z" fill="#9f9393" stroke-width=".3"/>
   </g>
   <g transform="translate(5 12)" fill="#9f9393" aria-label="⋮">
    <path d="m48.776 139.19v-.47508h.47508v.47508zm0-1.1889v-.47749h.47508v.47749zm0-1.1913v-.47508h.47508v.47508z"/>
    <path d="m104.18 139.19v-.47508h.47508v.47508zm0-1.1889v-.47749h.47508v.47749zm0-1.1913v-.47508h.47508v.47508z"/>
   </g>
   <g transform="translate(5 12)" fill="#9f9393" aria-label="⋮">
    <path d="m161.71 139.19v-.47508h.47507v.47508zm0-1.1889v-.47749h.47507v.47749zm0-1.1913v-.47508h.47507v.47508z" fill="#9f9393" stroke-width=".3"/>
   </g>
   <g transform="translate(5 12)" fill="#9f9393" aria-label="⋮">
    <path d="m48.776 139.19v-.47508h.47508v.47508zm0-1.1889v-.47749h.47508v.47749zm0-1.1913v-.47508h.47508v.47508z"/>
    <path d="m104.18 139.19v-.47508h.47508v.47508zm0-1.1889v-.47749h.47508v.47749zm0-1.1913v-.47508h.47508v.47508z"/>
   </g>
   <g transform="translate(5 12)" fill="#9f9393" aria-label="⋮">
    <path d="m161.71 139.19v-.47508h.47507v.47508zm0-1.1889v-.47749h.47507v.47749zm0-1.1913v-.47508h.47507v.47508z" fill="#9f9393" stroke-width=".3"/>
   </g>
   <g transform="translate(5 12)" fill="#9f9393" aria-label="⋮">
    <path d="m48.776 151.89v-.47508h.47508v.47508zm0-1.1889v-.47749h.47508v.47749zm0-1.1913v-.47508h.47508v.47508z"/>
    <path d="m104.18 151.89v-.47508h.47508v.47508zm0-1.1889v-.47749h.47508v.47749zm0-1.1913v-.47508h.47508v.47508z"/>
   </g>
   <g transform="translate(5 12)" fill="#9f9393" aria-label="⋮">
    <path d="m161.71 151.89v-.47508h.47507v.47508zm0-1.1889v-.47749h.47507v.47749zm0-1.1913v-.47508h.47507v.47508z" fill="#9f9393" stroke-width=".3"/>
   </g>
   <g transform="translate(5 12)" fill="#9f9393" aria-label="⋮">
    <path d="m48.776 151.89v-.47508h.47508v.47508zm0-1.1889v-.47749h.47508v.47749zm0-1.1913v-.47508h.47508v.47508z"/>
    <path d="m104.18 151.89v-.47508h.47508v.47508zm0-1.1889v-.47749h.47508v.47749zm0-1.1913v-.47508h.47508v.47508z"/>
   </g>
   <g transform="translate(5 12)" fill="#9f9393" aria-label="⋮">
    <path d="m161.71 151.89v-.47508h.47507v.47508zm0-1.1889v-.47749h.47507v.47749zm0-1.1913v-.47508h.47507v.47508z" fill="#9f9393" stroke-width=".3"/>
   </g>
   <g transform="translate(5 12)" fill="#9f9393" aria-label="⋮">
    <path d="m48.776 170.94v-.47508h.47508v.47508zm0-1.1889v-.47749h.47508v.47749zm0-1.1913v-.47508h.47508v.47508z"/>
    <path d="m104.18 170.94v-.47508h.47508v.47508zm0-1.1889v-.47749h.47508v.47749zm0-1.1913v-.47508h.47508v.47508z"/>
   </g>
   <g transform="translate(5 12)" fill="#9f9393" aria-label="⋮">
    <path d="m161.71 170.94v-.47508h.47507v.47508zm0-1.1889v-.47749h.47507v.47749zm0-1.1913v-.47508h.47507v.47508z" fill="#9f9393" stroke-width=".3"/>
   </g>
   <g transform="translate(5 12)" fill="#9f9393" aria-label="⋮">
    <path d="m48.776 170.94v-.47508h.47508v.47508zm0-1.1889v-.47749h.47508v.47749zm0-1.1913v-.47508h.47508v.47508z"/>
    <path d="m104.18 170.94v-.47508h.47508v.47508zm0-1.1889v-.47749h.47508v.47749zm0-1.1913v-.47508h.47508v.47508z"/>
   </g>
   <g transform="translate(5 12)" fill="#9f9393" aria-label="⋮">
    <path d="m161.71 170.94v-.47508h.47507v.47508zm0-1.1889v-.47749h.47507v.47749zm0-1.1913v-.47508h.47507v.47508z" fill="#9f9393" stroke-width=".3"/>
   </g>
  </g>
  <text x="54.151169" y="54.837524" font-family="'CMU Serif'" font-size="11.289px" stroke-width=".26458" style="line-height:1.25" xml:space="preserve"><tspan x="54.151169" y="54.837524" stroke-width=".26458"/></text>
 </g>
</svg>
