<svg width="168.73mm" height="180mm" version="1.1" viewBox="0 0 168.73 180" xmlns="http://www.w3.org/2000/svg" xmlns:xlink="http://www.w3.org/1999/xlink">
<rect width="100%" height="100%" fill="#1E1E1E"/>
 <defs>
  <linearGradient id="linearGradient2451">
   <stop stop-color="#7ff090" stop-opacity="0" offset="0"/>
   <stop stop-color="#7ff090" offset="1"/>
  </linearGradient>
  <linearGradient id="linearGradient1573">
   <stop stop-color="#fff" stop-opacity="0" offset="0"/>
   <stop stop-color="#707070" offset="1"/>
  </linearGradient>
  <marker id="marker1415" overflow="visible" orient="auto">
   <path transform="scale(-.8)" d="m5.77 0-8.65 5v-10z" fill="#fff" fill-rule="evenodd" stroke="#fff" stroke-width="1pt"/>
  </marker>
  <marker id="TriangleInL" overflow="visible" orient="auto">
   <path transform="scale(-.8)" d="m5.77 0-8.65 5v-10z" fill="#fff" fill-rule="evenodd" stroke="#fff" stroke-width="1pt"/>
  </marker>
  <linearGradient id="linearGradient1575" x1="20.636" x2="102.7" y1="15.733" y2="14.963" gradientTransform="translate(5e-4 21.078)" gradientUnits="userSpaceOnUse" spreadMethod="reflect" xlink:href="#linearGradient1573"/>
  <linearGradient id="linearGradient1581" x1="20.636" x2="102.7" y1="15.733" y2="14.963" gradientTransform="translate(5e-4 137.5)" gradientUnits="userSpaceOnUse" spreadMethod="reflect" xlink:href="#linearGradient1573"/>
  <linearGradient id="linearGradient2453" x1="84.437" x2="132.85" y1="12.151" y2="12.344" gradientUnits="userSpaceOnUse" xlink:href="#linearGradient2451"/>
  <linearGradient id="linearGradient2461" x1="84.437" x2="132.85" y1="12.151" y2="12.344" gradientTransform="translate(0 153.99)" gradientUnits="userSpaceOnUse" xlink:href="#linearGradient2451"/>
 </defs>
 <g transform="translate(-20.636 -5.02)">
  <path d="m41.437 83.401h127.13v23.238h-127.13z" fill="none" stroke="#fff" stroke-linejoin="round" stroke-width=".265"/>
  <g transform="translate(5e-4 6.0784)" stroke-width=".26458" aria-label="0xABCDEFGH">
   <path d="m70.029 85.016q1.2794 0 1.9452 1.0594.66576 1.0594.66576 3.0509 0 1.9973-.66576 3.0625-.66576 1.0594-1.9452 1.0594-1.2794 0-1.9452-1.0594-.66576-1.0652-.66576-3.0625 0-1.9915.66576-3.0509t1.9452-1.0594zm0 .78154q-1.5804 0-1.5804 3.3288 0 1.3315.20262 2.0841l2.4372-4.8976q-.35893-.51524-1.0594-.51524zm0 6.6633q1.5862 0 1.5862-3.3346 0-1.3547-.20841-2.0957l-2.4257 4.9208q.19104.26051.44577.38787.26051.12157.60207.12157z" fill="#3d3d3d"/>
   <path d="m75.018 93.115 2.252-3.2188-1.9741-2.8772h1.152l1.4126 2.2694 1.4299-2.2694h1.1115l-1.9683 2.8367 2.2462 3.2593h-1.1926l-1.6673-2.6167-1.6904 2.6167z" fill="#3d3d3d"/>
   <g fill="#a1a1a1">
    <path d="m84.06 91.083-.63681 2.032h-.98995l2.5936-7.9717h1.2852l2.5936 7.9717h-1.0536l-.63681-2.032zm2.8946-.83364-1.3084-4.2608-1.3257 4.2608z"/>
    <path d="m96.262 90.84q0 .82206-.42261 1.3315-.42261.50366-1.0942.72365t-1.4705.21999h-2.142v-7.9717h1.9625q1.2099 0 2.0146.46892.8047.46313.8047 1.5399 0 .71786-.42261 1.1578-.42261.43998-1.0594.58471 1.8294.31262 1.8294 1.9452zm-1.3778-3.6356q0-1.2505-1.5631-1.2505h-1.1868v2.582h1.2852q.72365 0 1.0942-.3184.37051-.32419.37051-1.0131zm.3184 3.6703q0-.83943-.46313-1.1752-.45734-.33577-1.2447-.33577h-1.3605v2.9235h1.3141q.73523 0 1.2447-.30683.50945-.30683.50945-1.1057z"/>
    <path d="m101.98 85.016q.75259 0 1.2794.19104.5326.18525 1.0305.58471l-.56155.65418q-.70628-.5905-1.6731-.5905-.6947 0-1.2447.32419-.54419.32419-.87417 1.0536-.32419.72944-.32419 1.8931 0 1.1405.31262 1.8699.31262.72944.85101 1.0594.54418.32998 1.2562.32998.60787 0 1.042-.17946.43419-.17946.81049-.48629l.52103.65997q-.40525.39366-.99574.63102-.5905.23736-1.3894.23736-.98416 0-1.7715-.4805-.78153-.4805-1.2331-1.4068-.44577-.93206-.44577-2.2346 0-1.2968.45734-2.223.45734-.93206 1.2331-1.4068.77575-.4805 1.7194-.4805z"/>
    <path d="m112.05 89.091q0 2.2636-1.042 3.1435-1.0363.87996-2.5588.87996h-1.8294v-7.9717h1.702q1.0652 0 1.8815.32419.81627.3184 1.3315 1.1926.51523.87417.51523 2.4315zm-1.071 0q0-1.2968-.35314-1.9857-.35314-.68891-.87996-.91469-.52103-.22578-1.1868-.22578h-.93785v6.3449h.94943q1.0363 0 1.7194-.70628.68892-.71207.68892-2.5125z"/>
    <path d="m115.94 88.651h2.9525v.82785h-2.9525v2.8309h3.624v.8047h-4.6313v-7.9717h4.5271l-.11578.82206h-3.404z"/>
    <path d="m123.9 88.756h3.1262v.81048h-3.1262v3.5488h-.99574v-7.9717h4.695l-.12158.82206h-3.5777z"/>
    <path d="m132.75 93.248q-.95522 0-1.6499-.45734-.6947-.46314-1.0768-1.3836-.3763-.92627-.3763-2.2809 0-1.3141.46313-2.2404.46314-.93206 1.2215-1.401.76417-.46892 1.6499-.46892.7468 0 1.2678.2142.52102.20841 1.0131.65997l-.60786.63102q-.36472-.34156-.76996-.50366t-.89732-.1621q-.61945 0-1.1289.32419-.50945.3184-.82207 1.0478-.31261.72944-.31261 1.8989 0 1.7078.52681 2.4951.52682.78154 1.592.78154.80469 0 1.5168-.38209v-2.4315h-1.5689l-.12157-.83364h2.6862v3.7977q-.61365.33577-1.2215.51524-.60207.17946-1.3836.17946z"/>
    <path d="m141.92 89.335h-3.0104v3.7803h-1.0015v-7.9717h1.0015v3.3693h3.0104v-3.3693h1.0015v7.9717h-1.0015z"/>
   </g>
   <g fill="url(#linearGradient2453)" stroke-width=".070004" aria-label="Memory ⟶">
    <path d="m91.541 14.349-2.0505-5.3578h-.03307q.05788.63665.05788 1.5131v3.8447h-.64906v-6.0441h1.0583l1.9141 4.9857h.03307l1.9306-4.9857h1.0501v6.0441h-.7028v-3.8943q0-.66973.05788-1.4552h-.03307l-2.0671 5.3495z"/>
    <path d="m98.321 14.431q-1.0046 0-1.5875-.61185-.57878-.61185-.57878-1.6991 0-1.0955.53744-1.7405.54157-.64492 1.4511-.64492.85163 0 1.3477.56224.49609.55811.49609 1.4759v.43408h-3.1213q.02067.79788.40101 1.2113.38447.41341 1.079.41341.73174 0 1.4469-.30592v.61185q-.3638.1571-.6904.22324-.32246.07028-.78135.07028zm-.18604-4.1217q-.5457 0-.8723.35553-.32246.35553-.38034.98392h2.3688q0-.64906-.28939-.99219-.28939-.34727-.82682-.34727z"/>
    <path d="m106.93 14.349v-2.9476q0-.54157-.23151-.81029-.23151-.27285-.71933-.27285-.64079 0-.94672.36794-.30592.36794-.30592 1.1327v2.5301h-.68627v-2.9476q0-.54157-.23151-.81029-.23151-.27285-.72347-.27285-.64492 0-.94671.38861-.29765.38447-.29765 1.265v2.3771h-.68627v-4.531h.55811l.11162.62012h.0331q.19431-.33073.5457-.51676.35554-.18604.79376-.18604 1.0625 0 1.3891.76895h.0331q.20257-.35553.58705-.56224.38447-.20671.87643-.20671.76894 0 1.1493.39688.38448.39274.38448 1.2609v2.9559z"/>
    <path d="m112.94 12.079q0 1.1079-.55811 1.7322-.5581.62012-1.542.62012-.60772 0-1.079-.28525t-.7276-.81856q-.25632-.5333-.25632-1.2485 0-1.1079.55397-1.7239.55398-.62012 1.5379-.62012.95084 0 1.509.63252.56224.63252.56224 1.7115zm-3.452 0q0 .86816.34727 1.3229.34726.45475 1.0211.45475t1.0211-.45062q.3514-.45475.3514-1.3271 0-.86403-.3514-1.3105-.34727-.45062-1.0294-.45062-.67387 0-1.017.44235-.34313.44235-.34313 1.3188z"/>
    <path d="m116.21 9.7351q.30179 0 .54157.049609l-.0951.63665q-.28112-.06201-.4961-.06201-.54983 0-.94257.44648-.38861.44648-.38861 1.1121v2.4309h-.68626v-4.531h.56637l.0786.83923h.0331q.25218-.44235.60772-.68213.35553-.23978.78134-.23978z"/>
    <path d="m116.88 9.8178h.73587l.99219 2.5838q.3266.8847.40514 1.2774h.0331q.0537-.21084.22324-.71934.17363-.51263 1.1245-3.1419h.73587l-1.9472 5.1594q-.28939.76481-.67799 1.0831-.38447.32246-.94671.32246-.3142 0-.62012-.07028v-.54984q.22737.04961.50849.04961.70694 0 1.0087-.79375l.25218-.64492z"/>
    <path d="m123.82 11.653h8.1111l-.94672-1.203.24392-.22738 1.6247 1.5751v.26458l-1.6247 1.5751-.24392-.22738.94672-1.2072h-8.1111z"/>
   </g>
   <g fill="url(#linearGradient2461)" stroke-width=".070004" aria-label="Memory ⟶">
    <path d="m91.541 168.34-2.0505-5.3578h-.03307q.05788.63666.05788 1.5131v3.8447h-.64906v-6.0441h1.0583l1.9141 4.9858h.03307l1.9306-4.9858h1.0501v6.0441h-.7028v-3.8943q0-.66973.05788-1.4552h-.03307l-2.0671 5.3496z"/>
    <path d="m98.321 168.42q-1.0046 0-1.5875-.61185-.57878-.61185-.57878-1.6991 0-1.0955.53744-1.7405.54157-.64492 1.4511-.64492.85163 0 1.3477.56224.49609.5581.49609 1.4759v.43409h-3.1213q.02067.79788.40101 1.2113.38447.41341 1.079.41341.73174 0 1.4469-.30592v.61185q-.3638.1571-.6904.22324-.32246.0703-.78135.0703zm-.18604-4.1217q-.5457 0-.8723.35553-.32246.35554-.38034.98392h2.3688q0-.64906-.28939-.99219-.28939-.34726-.82682-.34726z"/>
    <path d="m106.93 168.34v-2.9476q0-.54157-.23151-.81028-.23151-.27285-.71933-.27285-.64079 0-.94672.36793-.30592.36794-.30592 1.1328v2.5301h-.68627v-2.9476q0-.54157-.23151-.81028-.23151-.27285-.72347-.27285-.64492 0-.94671.3886-.29765.38448-.29765 1.265v2.3771h-.68627v-4.531h.55811l.11162.62012h.0331q.19431-.33073.5457-.51677.35554-.18603.79376-.18603 1.0625 0 1.3891.76894h.0331q.20257-.35553.58705-.56224.38447-.2067.87643-.2067.76894 0 1.1493.39687.38448.39274.38448 1.2609v2.9559z"/>
    <path d="m112.94 166.07q0 1.1079-.55811 1.7322-.5581.62012-1.542.62012-.60772 0-1.079-.28525-.47129-.28526-.7276-.81856-.25632-.5333-.25632-1.2485 0-1.1079.55397-1.7239.55398-.62011 1.5379-.62011.95084 0 1.509.63252.56224.63251.56224 1.7115zm-3.452 0q0 .86816.34727 1.3229.34726.45475 1.0211.45475t1.0211-.45062q.3514-.45475.3514-1.327 0-.86403-.3514-1.3105-.34727-.45061-1.0294-.45061-.67387 0-1.017.44235t-.34313 1.3188z"/>
    <path d="m116.21 163.72q.30179 0 .54157.0496l-.0951.63666q-.28112-.062-.4961-.062-.54983 0-.94257.44648-.38861.44649-.38861 1.1121v2.4309h-.68626v-4.531h.56637l.0786.83922h.0331q.25218-.44235.60772-.68213.35553-.23977.78134-.23977z"/>
    <path d="m116.88 163.81h.73587l.99219 2.5838q.3266.8847.40514 1.2774h.0331q.0537-.21084.22324-.71933.17363-.51263 1.1245-3.1419h.73587l-1.9472 5.1594q-.28939.76482-.67799 1.0831-.38447.32246-.94671.32246-.3142 0-.62012-.0703v-.54983q.22737.0496.50849.0496.70694 0 1.0087-.79375l.25218-.64493z"/>
    <path d="m123.82 165.64h8.1111l-.94672-1.203.24392-.22738 1.6247 1.5751v.26458l-1.6247 1.5751-.24392-.22738.94672-1.2072h-8.1111z"/>
   </g>
  </g>
  <g fill="none">
   <path d="m105 51.693v31.74" marker-start="url(#TriangleInL)" stroke="#fff" stroke-width=".251"/>
   <path d="m105 138.46v-31.74" marker-start="url(#marker1415)" stroke="#fff" stroke-width=".2506px"/>
   <path d="m43.911 32.249h138.86v22.726h-138.86z" stroke-width=".26458"/>
   <path d="m20.636 25.193h168.73m0 23.238h-168.73" stroke="url(#linearGradient1575)" stroke-linejoin="round" stroke-width=".305" style="mix-blend-mode:normal"/>
   <path d="m20.636 141.61h168.73m0 23.238h-168.73" stroke="url(#linearGradient1581)" stroke-linejoin="round" stroke-width=".305" style="mix-blend-mode:normal"/>
  </g>
  <g transform="translate(5e-4 21.078)" fill="#fff" stroke-width=".26458" aria-label="Big Endian">
   <path d="m112.02 44.997v2.1298h1.171q.71245 0 1.0687-.26148.35622-.26527.35622-.82234 0-.57981-.38654-.81098-.38275-.23496-1.1975-.23496zm0-.52676h1.2013q.58739 0 .88676-.20464.29938-.20464.29938-.7276 0-.52676-.36001-.72381-.35622-.20085-1.1104-.20085h-.91709zm-.6556-2.4102h1.6068q1.08 0 1.5992.3297.52296.3297.52296 1.0497 0 .10611-.0152.21222-.0114.10232-.0682.26527-.053.16295-.14779.29938-.0947.13264-.28044.26906-.1819.13264-.42822.21222.56465.10611.85645.47749t.2918.89435q0 .76171-.50023 1.1786-.49644.41686-1.4817.41686h-1.9554z"/>
   <path d="m116.86 43.508v4.1572h-.63666v-4.1572zm0-1.5121v.75034h-.63666v-.75034z"/>
   <path d="m119.67 47.123q.32212 0 .56465-.11369.24254-.11369.37896-.31454.13643-.20085.20085-.44717.0682-.24632.0682-.53812v-.30696q0-.30317-.0682-.55707-.0682-.25769-.21221-.45854-.14022-.20464-.37896-.31833-.23496-.11369-.5495-.11369-.26148 0-.47749.09853-.21222.09853-.35243.26148-.13643.15916-.23496.37517-.0947.21222-.13642.43202-.0417.2198-.0417.44338 0 .2198.0455.4358.0455.21601.144.42065t.23875.36001q.14021.15158.34864.24632.21222.09474.46233.09474zm-.97393 2.4443-.0568-.57223h.77308q.32212 0 .56086-.04547.23875-.04548.39791-.15158.15916-.10232.25769-.23117.0985-.12506.1478-.3297.053-.20085.0682-.4017.019-.19706.019-.48507v-.3676q-.22738.32591-.52676.50402-.29938.17432-.76171.17432-.35622 0-.65939-.12127-.29938-.12506-.50781-.3297-.20463-.20464-.35243-.4737-.144-.26906-.21222-.55707-.0644-.28801-.0644-.57981 0-.45475.1099-.84129.11369-.38654.33348-.68971.2198-.30317.57602-.4737.36002-.17432.82235-.17432.40928 0 .71244.15916.30696.15537.5495.48128v-.55328h.6177v3.8578q0 .26527-.0152.46233-.0114.20085-.0644.44338-.0493.24254-.13643.41686-.0872.17432-.24632.34864-.15537.17811-.37517.28422-.21601.1099-.53812.17811-.32212.06821-.72761.06821z"/>
   <path d="m124.61 47.665v-5.6048h3.2136l-.0265.57981h-2.5314v1.8342h2.4064v.57223h-2.4064v2.0388h2.6148l-.0303.57981z"/>
   <path d="m128.82 47.665v-4.1572h.53054l.0796.59497q.24633-.30696.61392-.49265.37138-.18948.79961-.18948.72002 0 1.0649.40549.34485.4017.34485 1.2392v2.5997h-.63286q0-2.5011-.004-2.6792-.0152-.53054-.21601-.77687-.19706-.24632-.66318-.24632-.48886 0-.81477.23496-.3259.23496-.42443.61013-.0379.2539-.0379.5836v2.2738z"/>
   <path d="m134.93 47.207q.62528 0 .92845-.4017.30696-.4017.30696-1.1482 0-.84129-.29559-1.2657-.2918-.42822-.9474-.42822-.2918 0-.51539.12506-.22358.12506-.36001.34864-.13642.22359-.20843.51539-.0682.28801-.0682.63286 0 .48507.11748.84129.12127.35622.38654.56844t.6556.21222zm1.2468-.144q-.20464.31454-.5457.50023-.34107.18569-.76171.18569-.82235 0-1.2885-.5836-.46612-.58739-.46612-1.5954 0-.96256.4737-1.5537.4737-.59497 1.2695-.59497.41306 0 .77687.1819.36759.17811.54949.48128l-.0114-.36001v-1.8304l.62528-.0379v5.8095h-.53812z"/>
   <path d="m138.64 43.508v4.1572h-.63665v-4.1572zm0-1.5121v.75034h-.63665v-.75034z"/>
   <path d="m141.03 47.241q.45097 0 .79203-.24632.34485-.25011.44338-.67076v-.70108q-.0189 0-.23116.01895-.20843.01895-.27285.02274-.82235.072-1.1482.26906-.32212.19706-.32212.63286 0 .33348.19706.50402t.54191.17053zm1.3756.42444q-.0568-.24254-.1099-.52296-.34485.34485-.64802.47749t-.71245.13264q-.5836 0-.93982-.30317-.35243-.30696-.35243-.87919 0-.63665.48128-.94361.48507-.30696 1.3946-.38275.12506-.01137.37517-.03032.25391-.02274.37896-.03411v-.36759q0-.43959-.20464-.65181-.20463-.21222-.64423-.21222-.61391 0-1.2392.30317-.019-.04548-.0985-.26148-.0796-.2198-.0834-.22738.27664-.15537.6556-.24632.38275-.09474.77687-.09474.77687 0 1.1179.34106.34486.33727.34486 1.152v2.7513z"/>
   <path d="m143.99 47.665v-4.1572h.53055l.0796.59497q.24632-.30696.61391-.49265.37139-.18948.79961-.18948.72003 0 1.0649.40549.34485.4017.34485 1.2392v2.5997h-.63286q0-2.5011-.004-2.6792-.0152-.53054-.21601-.77687-.19706-.24632-.66318-.24632-.48886 0-.81476.23496-.32591.23496-.42444.61013-.0379.2539-.0379.5836v2.2738z"/>
  </g>
  <g transform="translate(5e-4 21.078)" fill="#fff" stroke-width=".26458" aria-label="Little Endian">
   <path d="m111.36 104.82v-5.6048h.65939v5.0212h2.467l-.0227.5836z"/>
   <path d="m115.86 100.66v4.1572h-.63665v-4.1572zm0-1.512v.75034h-.63665v-.75034z"/>
   <path d="m118.38 104.89q-.61392 0-.87161-.29938t-.27285-.96635v-2.4974h-.61771l.0265-.41685.58739-.0531.21601-.95119.41685-.01516v.96635h1.1558v.46991h-1.1558v2.3837q0 .4737.14401.66697.144.19327.49265.19327.12505 0 .54191-.0606l.0265.50023q-.45097.0796-.68971.0796z"/>
   <path d="m121.07 104.89q-.61392 0-.87161-.29938t-.27285-.96635v-2.4974h-.61771l.0265-.41685.58739-.0531.216-.95119.41686-.01516v.96635h1.1558v.46991h-1.1558v2.3837q0 .4737.14401.66697.144.19327.49264.19327.12506 0 .54192-.0606l.0265.50023q-.45097.0796-.68971.0796z"/>
   <path d="m123.55 104.89q-.60634 0-.86024-.3259-.25012-.32591-.25012-1.1331v-4.3884l.62908-.0379v4.1761q0 .25769.004.41307.008.15537.0303.30695.0227.1478.0606.22359.0379.0758.1099.14022.072.0606.17053.0834.10232.019.25011.019.12127 0 .47749-.0455l.0341.50402q-.39033.0644-.6556.0644z"/>
   <path d="m126.98 101.43q-.27664-.33348-.76171-.33348t-.79203.34485q-.30696.34107-.36001.93603h2.1942q0-.6177-.28043-.9474zm-.63665 3.4751q-.90572 0-1.4287-.57602-.51918-.57602-.51918-1.5765 0-.96634.50402-1.5651.50401-.60255 1.3264-.61392.77308 0 1.224.53055.45475.52675.45475 1.4097 0 .0455-.004.16674 0 .12127 0 .17432h-2.8536q.0114.70866.3638 1.1066.35623.39412.95498.39412.65939 0 1.3226-.34865l.0985.5116q-.63287.38654-1.4438.38654z"/>
   <path d="m130.84 104.82v-5.6048h3.2136l-.0265.57981h-2.5314v1.8342h2.4064v.57223h-2.4064v2.0388h2.6148l-.0303.57981z"/>
   <path d="m135.05 104.82v-4.1572h.53054l.0796.59497q.24633-.30696.61392-.49265.37138-.18948.79961-.18948.72002 0 1.0649.40549.34485.4017.34485 1.2392v2.5997h-.63286q0-2.5011-.004-2.6792-.0152-.53055-.21601-.77687-.19706-.24632-.66318-.24632-.48886 0-.81477.23495-.3259.23496-.42443.61013-.0379.2539-.0379.5836v2.2738z"/>
   <path d="m141.16 104.36q.62528 0 .92845-.4017.30696-.4017.30696-1.1482 0-.84129-.29559-1.2657-.2918-.42822-.9474-.42822-.2918 0-.51539.12505-.22358.12506-.36001.34865-.13642.22358-.20843.51538-.0682.28801-.0682.63287 0 .48507.11748.84129.12127.35622.38654.56844t.6556.21222zm1.2468-.14401q-.20464.31454-.5457.50023-.34107.18569-.76171.18569-.82235 0-1.2885-.5836-.46612-.58739-.46612-1.5954 0-.96256.4737-1.5537.4737-.59497 1.2695-.59497.41306 0 .77687.1819.36759.17811.54949.48128l-.0114-.36001v-1.8304l.62528-.0379v5.8095h-.53812z"/>
   <path d="m144.88 100.66v4.1572h-.63665v-4.1572zm0-1.512v.75034h-.63665v-.75034z"/>
   <path d="m147.27 104.39q.45096 0 .79203-.24632.34485-.25011.44338-.67076v-.70108q-.019 0-.23116.019-.20843.019-.27286.0227-.82234.072-1.1482.26906-.32211.19706-.32211.63286 0 .33349.19706.50402t.54191.17053zm1.3756.42444q-.0568-.24254-.1099-.52297-.34486.34486-.64802.47749-.30317.13264-.71245.13264-.5836 0-.93982-.30317-.35243-.30696-.35243-.87919 0-.63665.48128-.94361.48506-.30696 1.3946-.38275.12506-.0114.37517-.0303.2539-.0227.37896-.0341v-.36759q0-.4396-.20464-.65181-.20464-.21222-.64423-.21222-.61392 0-1.2392.30317-.019-.0455-.0985-.26149-.0796-.21979-.0834-.22737.27664-.15538.6556-.24633.38275-.0947.77687-.0947.77687 0 1.1179.34107.34486.33727.34486 1.152v2.7512z"/>
   <path d="m150.23 104.82v-4.1572h.53055l.0796.59497q.24632-.30696.61392-.49265.37138-.18948.7996-.18948.72003 0 1.0649.40549.34486.4017.34486 1.2392v2.5997h-.63287q0-2.5011-.004-2.6792-.0152-.53055-.21601-.77687-.19705-.24632-.66318-.24632-.48885 0-.81476.23495-.32591.23496-.42444.61013-.0379.2539-.0379.5836v2.2738z"/>
  </g>
  <g fill="none" stroke="#767676" stroke-dasharray="2.096, 2.096" stroke-dashoffset=".7336" stroke-width=".262">
   <path d="m52.239 25.192v23.238z"/>
   <path d="m78.698 25.192v23.238z"/>
   <path d="m105.16 25.192v23.238z"/>
   <path d="m131.61 25.192v23.238z"/>
   <path d="m158.07 25.192v23.238z"/>
   <path d="m52.239 164.85v-23.238z"/>
  </g>
  <g stroke-width=".1965">
   <g transform="translate(5e-4 21.078)" aria-label="0xAB">
    <path d="m56.805 12.483q.95016 0 1.4446.78679t.49443 2.2658q0 1.4833-.49443 2.2744-.49443.78679-1.4446.78679t-1.4446-.78679q-.49443-.79109-.49443-2.2744 0-1.479.49443-2.2658t1.4446-.78679zm0 .58042q-1.1737 0-1.1737 2.4721 0 .98886.15048 1.5478l1.81-3.6373q-.26656-.38264-.78679-.38264zm0 4.9486q1.178 0 1.178-2.4764 0-1.0061-.15478-1.5564l-1.8014 3.6545q.14188.19347.33105.28806.19347.09029.44714.09029z" fill="#3d3d3d"/>
    <path d="m60.51 18.497 1.6725-2.3905-1.4661-2.1368h.85558l1.049 1.6854 1.0619-1.6854h.82548l-1.4618 2.1067 1.6682 2.4206h-.88567l-1.2382-1.9433-1.2554 1.9433z" fill="#3d3d3d"/>
    <path d="m67.225 16.988-.47293 1.5091h-.7352l1.9261-5.9203h.95446l1.9261 5.9203h-.78249l-.47293-1.5091zm2.1497-.61911-.97166-3.1643-.98456 3.1643z" fill="#a1a1a1"/>
    <path d="m76.287 16.808q0 .61051-.31386.98886-.31386.37405-.81258.53742-.49873.16338-1.092.16338h-1.5908v-5.9203h1.4575q.89857 0 1.4962.34825.59761.34395.59761 1.1436 0 .53312-.31386.85988-.31386.32675-.78679.43424 1.3586.23217 1.3586 1.4446zm-1.0233-2.7q0-.92867-1.1608-.92867h-.88137v1.9175h.95446q.53742 0 .81258-.23647.27516-.24076.27516-.75239zm.23647 2.7258q0-.62341-.34395-.87278-.33965-.24936-.92437-.24936h-1.0104v2.1712h.97596q.54602 0 .92437-.22787.37835-.22787.37835-.82118z" fill="#a1a1a1"/>
   </g>
   <g transform="translate(5e-4 21.078)" aria-label="0xCD">
    <path d="m83.263 12.483q.95016 0 1.4446.78679.49443.78679.49443 2.2658 0 1.4833-.49443 2.2744-.49443.78679-1.4446.78679t-1.4446-.78679q-.49443-.79109-.49443-2.2744 0-1.479.49443-2.2658t1.4446-.78679zm0 .58042q-1.1737 0-1.1737 2.4721 0 .98886.15048 1.5478l1.81-3.6373q-.26656-.38264-.78679-.38264zm0 4.9486q1.178 0 1.178-2.4764 0-1.0061-.15478-1.5564l-1.8014 3.6545q.14188.19347.33105.28806.19347.09029.44714.09029z" fill="#3d3d3d" stroke-width=".1965"/>
    <path d="m86.968 18.497 1.6725-2.3905-1.4661-2.1368h.85558l1.049 1.6854 1.0619-1.6854h.82548l-1.4618 2.1067 1.6682 2.4206h-.88567l-1.2382-1.9433-1.2554 1.9433z" fill="#3d3d3d" stroke-width=".1965"/>
    <path d="m95.377 12.483q.55892 0 .95016.14188.39554.13758.76529.43424l-.41704.48583q-.52452-.43854-1.2425-.43854-.51593 0-.92437.24077-.40414.24077-.64921.78249-.24076.54172-.24076 1.4059 0 .84698.23217 1.3887.23217.54172.63201.78679.40414.24506.93297.24506.45144 0 .77389-.13328.32245-.13328.60191-.36115l.38694.49013q-.30096.29236-.73949.46863-.43854.17627-1.0319.17627-.7309 0-1.3156-.35685-.58042-.35685-.91577-1.0448-.33105-.6922-.33105-1.6596 0-.96306.33965-1.651.33965-.6922.91577-1.0448.57612-.35685 1.2769-.35685z" fill="#a1a1a1"/>
    <path d="m102.86 15.509q0 1.6811-.77389 2.3346-.76959.65351-1.9003.65351h-1.3586v-5.9203h1.264q.79109 0 1.3973.24077.60622.23647.98886.88567.38265.64921.38265 1.8057zm-.79539 0q0-.96306-.26226-1.4747-.26227-.51163-.65351-.6793-.38694-.16768-.88137-.16768h-.6965v4.7121h.7051q.76959 0 1.2769-.52452.51163-.52882.51163-1.8659z" fill="#a1a1a1"/>
   </g>
   <g transform="translate(5e-4 21.078)" aria-label="0xEF">
    <path d="m109.72 12.483q.95017 0 1.4446.78679.49443.78679.49443 2.2658 0 1.4833-.49443 2.2744-.49442.78679-1.4446.78679-.95016 0-1.4446-.78679-.49443-.79109-.49443-2.2744 0-1.479.49443-2.2658t1.4446-.78679zm0 .58042q-1.1737 0-1.1737 2.4721 0 .98886.15048 1.5478l1.81-3.6373q-.26656-.38264-.78679-.38264zm0 4.9486q1.178 0 1.178-2.4764 0-1.0061-.15478-1.5564l-1.8014 3.6545q.14188.19347.33106.28806.19347.09029.44713.09029z" fill="#3d3d3d"/>
    <path d="m113.43 18.497 1.6725-2.3905-1.4661-2.1368h.85557l1.049 1.6854 1.062-1.6854h.82548l-1.4618 2.1067 1.6682 2.4206h-.88567l-1.2382-1.9433-1.2554 1.9433z" fill="#3d3d3d"/>
    <path d="m120.58 15.183h2.1927v.61481h-2.1927v2.1024h2.6914v.59762h-3.4395v-5.9203h3.3621l-.086.61051h-2.528z" fill="#a1a1a1"/>
    <path d="m126.5 15.26h2.3217v.60191h-2.3217v2.6355h-.73949v-5.9203h3.4868l-.0903.61051h-2.657z" fill="#a1a1a1"/>
   </g>
   <g transform="translate(5e-4 21.078)" aria-label="0xGH">
    <path d="m136.18 12.483q.95016 0 1.4446.78679t.49443 2.2658q0 1.4833-.49443 2.2744-.49443.78679-1.4446.78679-.95017 0-1.4446-.78679-.49443-.79109-.49443-2.2744 0-1.479.49443-2.2658t1.4446-.78679zm0 .58042q-1.1737 0-1.1737 2.4721 0 .98886.15047 1.5478l1.81-3.6373q-.26656-.38264-.78678-.38264zm0 4.9486q1.178 0 1.178-2.4764 0-1.0061-.15478-1.5564l-1.8014 3.6545q.14188.19347.33105.28806.19347.09029.44714.09029z" fill="#3d3d3d"/>
    <path d="m139.88 18.497 1.6725-2.3905-1.4661-2.1368h.85558l1.049 1.6854 1.062-1.6854h.82548l-1.4618 2.1067 1.6682 2.4206h-.88567l-1.2382-1.9433-1.2554 1.9433z" fill="#3d3d3d"/>
    <path d="m147.91 18.596q-.7094 0-1.2253-.33965-.51592-.34395-.79968-1.0276-.27946-.6879-.27946-1.694 0-.97596.34395-1.6639.34395-.6922.90717-1.0405.56752-.34825 1.2253-.34825.55462 0 .94157.15908.38694.15478.75239.49013l-.45144.46863q-.27086-.25366-.57181-.37405-.30096-.12038-.66641-.12038-.46003 0-.83838.24077-.37834.23647-.61051.77819-.23217.54172-.23217 1.4102 0 1.2683.39125 1.853.39124.58042 1.1823.58042.59761 0 1.1264-.28376v-1.8057h-1.1651l-.0903-.61911h1.9949v2.8204q-.45574.24936-.90717.38264-.44714.13328-1.0276.13328z" fill="#a1a1a1"/>
    <path d="m154.72 15.69h-2.2357v2.8075h-.7438v-5.9203h.7438v2.5022h2.2357v-2.5022h.74379v5.9203h-.74379z" fill="#a1a1a1"/>
   </g>
   <g transform="translate(5e-4 21.078)" aria-label="0xAB">
    <path d="m136.18 128.9q.95016 0 1.4446.78679.49443.78678.49443 2.2658 0 1.4833-.49443 2.2744-.49443.78678-1.4446.78678-.95017 0-1.4446-.78678-.49443-.79109-.49443-2.2744 0-1.479.49443-2.2658.49443-.78679 1.4446-.78679zm0 .58041q-1.1737 0-1.1737 2.4722 0 .98886.15047 1.5478l1.81-3.6373q-.26656-.38265-.78678-.38265zm0 4.9486q1.178 0 1.178-2.4764 0-1.0061-.15478-1.5564l-1.8014 3.6545q.14188.19347.33105.28806.19347.0903.44714.0903z" fill="#3d3d3d"/>
    <path d="m139.88 134.91 1.6725-2.3905-1.4661-2.1368h.85558l1.049 1.6854 1.062-1.6854h.82548l-1.4618 2.1067 1.6682 2.4206h-.88567l-1.2382-1.9433-1.2554 1.9433z" fill="#3d3d3d"/>
    <path d="m146.6 133.4-.47293 1.5091h-.73519l1.9261-5.9203h.95446l1.9261 5.9203h-.78249l-.47293-1.5091zm2.1497-.61911-.97166-3.1644-.98456 3.1644z" fill="#a1a1a1"/>
    <path d="m155.66 133.22q0 .61051-.31385.98886-.31386.37404-.81259.53742t-1.092.16338h-1.5908v-5.9203h1.4575q.89857 0 1.4962.34825.59762.34396.59762 1.1436 0 .53312-.31386.85988-.31385.32675-.78679.43424 1.3586.23216 1.3586 1.4446zm-1.0232-2.7q0-.92867-1.1608-.92867h-.88137v1.9175h.95446q.53743 0 .81259-.23646.27516-.24077.27516-.75239zm.23646 2.7258q0-.62341-.34395-.87277-.33965-.24936-.92437-.24936h-1.0104v2.1712h.97596q.54602 0 .92437-.22786.37834-.22787.37834-.82119z" fill="#a1a1a1"/>
   </g>
   <g transform="translate(5e-4 21.078)" aria-label="0xCD">
    <path d="m109.72 128.9q.95016 0 1.4446.78679.49443.78678.49443 2.2658 0 1.4833-.49443 2.2744-.49443.78678-1.4446.78678t-1.4446-.78678q-.49443-.79109-.49443-2.2744 0-1.479.49443-2.2658.49443-.78679 1.4446-.78679zm0 .58041q-1.1737 0-1.1737 2.4722 0 .98886.15048 1.5478l1.81-3.6373q-.26657-.38265-.78679-.38265zm0 4.9486q1.178 0 1.178-2.4764 0-1.0061-.15478-1.5564l-1.8014 3.6545q.14188.19347.33105.28806.19348.0903.44714.0903z" fill="#3d3d3d"/>
    <path d="m113.43 134.91 1.6725-2.3905-1.4661-2.1368h.85558l1.049 1.6854 1.062-1.6854h.82548l-1.4618 2.1067 1.6682 2.4206h-.88567l-1.2382-1.9433-1.2554 1.9433z" fill="#3d3d3d"/>
    <path d="m121.84 128.9q.55892 0 .95017.14188.39554.13758.76529.43424l-.41704.48583q-.52453-.43854-1.2425-.43854-.51593 0-.92437.24076-.40414.24077-.64921.78249-.24076.54172-.24076 1.4059 0 .84698.23216 1.3887.23217.54172.63201.78679.40414.24506.93297.24506.45143 0 .77389-.13328.32245-.13328.60191-.36114l.38695.49012q-.30096.29236-.7395.46864-.43854.17627-1.0318.17627-.7309 0-1.3156-.35685-.58042-.35685-.91577-1.0448-.33105-.6922-.33105-1.6596 0-.96306.33965-1.651.33965-.6922.91577-1.0448.57611-.35685 1.2769-.35685z" fill="#a1a1a1"/>
    <path d="m129.32 131.93q0 1.6811-.77389 2.3346-.76959.65351-1.9003.65351h-1.3586v-5.9203h1.264q.79109 0 1.3973.24077.60622.23647.98886.88567.38265.64921.38265 1.8057zm-.79539 0q0-.96306-.26226-1.4747-.26226-.51163-.65351-.67931-.38694-.16767-.88137-.16767h-.6965v4.7121h.7051q.76959 0 1.2769-.52452.51163-.52883.51163-1.8659z" fill="#a1a1a1"/>
   </g>
   <g transform="translate(5e-4 21.078)" aria-label="0xEF">
    <path d="m83.263 128.9q.95016 0 1.4446.78679.49443.78678.49443 2.2658 0 1.4833-.49443 2.2744-.49443.78678-1.4446.78678t-1.4446-.78678q-.49443-.79109-.49443-2.2744 0-1.479.49443-2.2658.49443-.78679 1.4446-.78679zm0 .58041q-1.1737 0-1.1737 2.4722 0 .98886.15048 1.5478l1.81-3.6373q-.26656-.38265-.78679-.38265zm0 4.9486q1.178 0 1.178-2.4764 0-1.0061-.15478-1.5564l-1.8014 3.6545q.14188.19347.33105.28806.19347.0903.44714.0903z" fill="#3d3d3d"/>
    <path d="m86.968 134.91 1.6725-2.3905-1.4661-2.1368h.85558l1.049 1.6854 1.0619-1.6854h.82548l-1.4618 2.1067 1.6682 2.4206h-.88567l-1.2382-1.9433-1.2554 1.9433z" fill="#3d3d3d"/>
    <path d="m94.126 131.6h2.1927v.61481h-2.1927v2.1024h2.6914v.59762h-3.4395v-5.9203h3.3621l-.08599.61052h-2.528z" fill="#a1a1a1"/>
    <path d="m100.04 131.68h2.3217v.60191h-2.3217v2.6355h-.73949v-5.9203h3.4868l-.0903.61052h-2.657z" fill="#a1a1a1"/>
   </g>
   <g transform="translate(5e-4 21.078)" aria-label="0xGH">
    <path d="m56.805 128.9q.95016 0 1.4446.78679.49443.78678.49443 2.2658 0 1.4833-.49443 2.2744-.49443.78678-1.4446.78678-.95016 0-1.4446-.78678-.49443-.79109-.49443-2.2744 0-1.479.49443-2.2658.49443-.78679 1.4446-.78679zm0 .58041q-1.1737 0-1.1737 2.4722 0 .98886.15048 1.5478l1.81-3.6373q-.26656-.38265-.78679-.38265zm0 4.9486q1.178 0 1.178-2.4764 0-1.0061-.15478-1.5564l-1.8014 3.6545q.14188.19347.33105.28806.19347.0903.44714.0903z" fill="#3d3d3d"/>
    <path d="m60.51 134.91 1.6725-2.3905-1.4661-2.1368h.85558l1.049 1.6854 1.0619-1.6854h.82548l-1.4618 2.1067 1.6682 2.4206h-.88567l-1.2382-1.9433-1.2554 1.9433z" fill="#3d3d3d"/>
    <path d="m68.536 135.01q-.7094 0-1.2253-.33965-.51593-.34395-.79968-1.0276-.27946-.6879-.27946-1.694 0-.97596.34395-1.6639.34395-.6922.90717-1.0404.56752-.34825 1.2253-.34825.55462 0 .94156.15908.38694.15477.75239.49013l-.45144.46863q-.27086-.25367-.57182-.37405t-.6664-.12038q-.46003 0-.83838.24076-.37835.23647-.61051.77819-.23217.54173-.23217 1.4102 0 1.2683.39124 1.853.39124.58041 1.1823.58041.59761 0 1.1264-.28376v-1.8057h-1.1651l-.09029-.61911h1.9949v2.8204q-.45574.24936-.90717.38264-.44714.13328-1.0276.13328z" fill="#a1a1a1"/>
    <path d="m75.346 132.11h-2.2357v2.8075h-.74379v-5.9203h.74379v2.5022h2.2357v-2.5022h.74379v5.9203h-.74379z" fill="#a1a1a1"/>
   </g>
  </g>
  <g fill="none" stroke="#767676" stroke-dasharray="2.096, 2.096" stroke-dashoffset=".7336" stroke-width=".262">
   <path d="m78.698 164.85v-23.238z"/>
   <path d="m105.16 164.85v-23.238z"/>
   <path d="m131.61 164.85v-23.238z"/>
   <path d="m158.07 164.85v-23.238z"/>
  </g>
 </g>
</svg>
