<svg xmlns="http://www.w3.org/2000/svg" width="210mm" height="150mm" viewBox="0 0 210 150"><defs><marker id="c" orient="auto" overflow="visible"><path fill="#fafafa" fill-rule="evenodd" stroke="#fafafa" stroke-linejoin="round" stroke-width=".375" d="M-5.231-2.42L1.324-.01-5.23 2.401c1.047-1.423 1.041-3.37 0-4.821z"/></marker><marker id="a" orient="auto" overflow="visible"><path fill="#fafafa" fill-rule="evenodd" stroke="#fafafa" stroke-linejoin="round" stroke-width=".375" d="M-5.231-2.42L1.324-.01-5.23 2.401c1.047-1.423 1.041-3.37 0-4.821z"/></marker><marker id="b" orient="auto" overflow="visible"><path fill="#fafafa" fill-rule="evenodd" stroke="#fafafa" stroke-linejoin="round" stroke-width=".375" d="M-5.231-2.42L1.324-.01-5.23 2.401c1.047-1.423 1.041-3.37 0-4.821z"/></marker></defs><path fill="#64ff7d" fill-rule="evenodd" d="M111.79 82.414a6 6 0 01-6 6 6 6 0 01-6-6 6 6 0 016-6 6 6 0 016 6z"/><path fill="none" stroke="#fafafa" stroke-dasharray="1.024 3.071" stroke-width="1.024" marker-end="url(#a)" d="M111.55 86.943L147 127.009"/><path fill="none" stroke="#fafafa" stroke-width="1.765" marker-end="url(#b)" d="M59.492 111.06L99.18 79.688" transform="rotate(30 90.342 77.797)"/><g style="line-height:1.25" fill="#fff" aria-label="F" font-family="'CMU Serif'" font-size="16.988"><path d="M65.457 81.832l.045-.804 1.842-.165.755-10.061-1.826.163.06-.813 10.237-.918.217 4.095-.793.071q.001-.167-.039-.613-.127-1.42-.77-1.988-.642-.575-2.31-.425l-2.355.21-.352 4.62.842-.075q1.066-.095 1.465-.564.407-.478.456-1.607l.793-.07-.367 4.82-.793.072q.055-.496.025-.835-.06-.661-.46-.867-.403-.213-1.18-.144l-.85.077-.351 4.636 2.288-.205-.069.806q-.748.017-3.4.255-2.47.221-3.11.329z"/><path d="M73.5 79.78l-.01-.205q.424-.025.713-.282.29-.26.442-.615.1-.005.127.036.03.037.035.139l.168 3.662q.01.21.13.26.124.045.596.023l.096-.004.009.2q-.556.007-1.106.032-.111.005-1.01.066l-.01-.202.086-.003q.47-.022.598-.073.13-.053.12-.264l-.005-.038-.005-.039-.142-3.093q-.383.372-.833.4z" aria-label="1"/><text x="28.663" y="140.396" stroke-width=".061" font-size="6.545" transform="rotate(-2.621 -1200.729 -854.623)" style="line-height:1.25"><tspan x="28.663" y="140.396" font-family="'CMU Serif Upright Italic'">1</tspan></text></g><path fill="#fff" d="M112.21 42.58l.79.157-.094 1.847 9.856 2.155.094-1.83.796.173-.522 10.264-4.085-.358.04-.795q.165.025.613.048 1.424.072 2.076-.484.66-.556.744-2.23l.12-2.36-4.525-.995-.043.845q-.054 1.068.354 1.53.416.469 1.527.675l-.04.795-4.723-1.038.04-.795q.484.124.824.142.662.034.922-.335.268-.369.308-1.147l.043-.854-4.542-.995-.117 2.295-.788-.182q.087-.743.223-3.402.126-2.477.11-3.126z"/><path fill="#fff" d="M109.695 50.276q.144 0 .243.099l1.307 1.4q.556.588.978.821.425.233.818.234.355 0 .581-.176.227-.176.227-.53 0-.295-.175-.57-.176-.274-.49-.431.007.026.007.07 0 .138-.08.218-.08.083-.208.083-.176 0-.288-.119-.111-.115-.111-.274 0-.052.016-.112.016-.058.086-.125.073-.064.192-.064.386 0 .821.406.435.406.435 1.016 0 .499-.275.847t-.793.349q-.68 0-1.33-.745-.057-.074-.543-.687-.482-.61-.914-1.106v1.15q0 .119.003.253t.01.22l.006.09q.013.057.039.086.13.112.575.237v.163l-1.138-.374z" aria-label="2"/><path fill="none" stroke="#fafafa" stroke-width="1.765" marker-end="url(#c)" d="M116.21 110.1l39.688-31.372" transform="rotate(128.04 132.099 63.947)"/></svg>