<svg width="210mm" height="150mm" viewBox="0 0 210 150" xmlns="http://www.w3.org/2000/svg"><defs><marker id="c" overflow="visible" orient="auto"><path d="M-5.231-2.42L1.324-.01-5.23 2.401c1.047-1.423 1.041-3.37 0-4.821z" fill="#fffdfd" fill-rule="evenodd" stroke="#fffdfd" stroke-linejoin="round" stroke-width=".375"/></marker><marker id="b" overflow="visible" orient="auto"><path d="M-5.231-2.42L1.324-.01-5.23 2.401c1.047-1.423 1.041-3.37 0-4.821z" fill="#fafafa" fill-rule="evenodd" stroke="#fafafa" stroke-linejoin="round" stroke-width=".375"/></marker><marker id="a" overflow="visible" orient="auto"><path d="M-5.231-2.42L1.324-.01-5.23 2.401c1.047-1.423 1.041-3.37 0-4.821z" fill="#fafafa" fill-rule="evenodd" stroke="#fafafa" stroke-linejoin="round" stroke-width=".375"/></marker></defs><path d="M133.73 86.239a6 6 0 01-6 6 6 6 0 01-6-6 6 6 0 016-6 6 6 0 016 6z" fill="#64ff7d" fill-rule="evenodd"/><path d="M81.43 122.71l39.688-31.372" fill="none" marker-end="url(#a)" stroke="#fafafa" stroke-width="1.765"/><path d="M132.76 81.968l39.688-31.372" fill="none" marker-end="url(#b)" stroke="#fafafa" stroke-dasharray="0.965, 2.895" stroke-width=".965"/><path d="M92.747 105.389l-.364-.718 1.513-1.065-4.376-9.09-1.5 1.054-.354-.734 8.406-5.913 2.235 3.437-.651.458q-.082-.145-.34-.511-.82-1.167-1.66-1.337-.845-.177-2.215.787l-1.934 1.36 2.006 4.178.692-.487q.875-.616.986-1.222.114-.617-.409-1.619l.652-.458 2.093 4.36-.652.458q-.2-.458-.396-.736-.381-.543-.832-.52-.455.016-1.093.465l-.699.491 2.015 4.19 1.88-1.321.342.732q-.639.39-2.817 1.921-2.028 1.427-2.529 1.84z" fill="#fff" aria-label="F"/><path d="M136.46 29.42c22.301-7.56 35.226 12.861 35.226 12.861" fill="none" marker-end="url(#c)" stroke="#fffdfd" stroke-width=".865"/><path d="M38.68 45.134l.553 2.7q.221-.045.914-.175.7-.132 1.077-.21 1.031-.21 1.368-.633.333-.429.181-1.174-.134-.654-.588-.893-.454-.238-1.366-.052zm6.6 6.196l-1.078.22-1.615-2.28q-.654-.918-.82-1.098-.389.108-.929.218l-1.44.249.764 3.737-.957.196-1.652-8.079 2.555-.522q.443-.09.787-.139.345-.048.692-.057.35-.015.62.036.269.047.518.165.248.112.422.307.18.194.32.486.137.287.216.67.155.757-.134 1.383-.283.627-.969.986.002.011.148.172.145.162.347.402.205.233.323.395zm3.56-5.759q-.49-.394-1.182-.253t-1.028.723q-.337.575-.24 1.438l3.127-.64q-.18-.88-.676-1.268zm.107 5.138q-1.29.264-2.204-.404-.908-.67-1.2-2.095-.281-1.378.263-2.378.542-1.005 1.711-1.262 1.102-.225 1.9.4.8.618 1.057 1.876.014.066.043.24l.051.247-4.066.832q.222 1.007.841 1.471.622.458 1.476.283.94-.192 1.783-.882l.29.7q-.79.736-1.945.972zm5.243-1.072q-.604.124-1.144.1-.534-.027-.895-.167l-.043-.784q1 .296 1.87.118 1.318-.27 1.166-1.206-.08-.394-.408-.564-.327-.17-1.205-.282l-.481-.065q-.83-.1-1.244-.416-.407-.315-.53-.886-.143-.697.32-1.27.468-.573 1.44-.772 1.005-.206 1.91.013l-.123.746q-.909-.175-1.637-.025-.567.115-.846.41-.272.286-.189.691.07.345.34.482.27.135 1.016.231.191.027.478.06.956.107 1.411.43.453.319.591.994.157.822-.327 1.394-.486.567-1.47.768zm2.746-2.75l-.808-3.948.907-.186.81 3.96q.08.388.243.636.169.247.405.356.24.104.513.114.278.012.617-.058.703-.143 1.029-.532.33-.388.18-1.127l-.81-3.959.907-.185.807 3.947q.093.454.038.842-.055.389-.227.677-.167.281-.444.501t-.607.361q-.325.14-.72.22-.388.08-.75.08t-.704-.092q-.34-.099-.616-.29-.271-.198-.475-.533-.204-.336-.295-.784zm8.165.501q-.864.177-1.32-.214-.452-.391-.688-1.541l-1.279-6.254.886-.237 1.217 5.95q.075.368.125.588.056.22.134.429.075.204.151.301t.198.167q.12.067.267.07.15-.003.361-.046.173-.036.668-.204l.196.708q-.538.206-.916.283zm3.37-.69q-.875.18-1.33-.171-.454-.352-.67-1.298l-.728-3.56-.88.18-.084-.6L65.6 41l.03-1.418.59-.143.281 1.377 1.648-.337.137.67-1.648.336.695 3.397q.138.676.4.908t.758.133q.178-.037.755-.244l.183.704q-.62.245-.959.315zm3.494-1.456q.643-.131 1.057-.581.419-.458.436-1.086l-.204-1q-.028.006-.324.096-.291.087-.382.112-1.15.342-1.558.717-.402.375-.275.996.097.476.428.661.33.186.822.085zm2.083.204q-.15-.328-.308-.713-.391.592-.785.87-.392.276-.976.396-.832.17-1.428-.157-.59-.336-.758-1.152-.185-.907.411-1.484.601-.58 1.875-.952l.527-.153.53-.16-.108-.522q-.128-.627-.482-.87-.352-.243-.98-.114-.874.178-1.677.792-.04-.058-.217-.344-.177-.29-.184-.299.349-.302.862-.542.518-.247 1.08-.361 1.107-.227 1.692.16.59.38.827 1.541l.801 3.92zm2.258-.462l-1.211-5.924.756-.155.286.825q.262-.51.731-.881.474-.379 1.085-.504 1.026-.21 1.635.268.61.473.853 1.666l.758 3.704-.901.185q-.73-3.564-.787-3.817-.176-.752-.534-1.044-.353-.293-1.017-.158-.696.143-1.093.572t-.427.994q.02.373.117.842l.662 3.24zm8.306-1.586q-.875.179-1.33-.172-.454-.352-.67-1.298l-.728-3.56-.88.18-.084-.601.822-.247.03-1.419.59-.143.281 1.378 1.648-.337.137.669-1.648.337.695 3.397q.138.676.4.908t.758.133q.178-.037.755-.245l.183.705q-.62.245-.96.315zm9.604-6.218q-.343-1.674-1.362-2.259-1.02-.584-2.673-.246l-1.252.256 1.3 6.356L91.638 41q1.577-.322 2.236-1.284.662-.97.342-2.535zm.993-.232q.4 1.95-.498 3.203-.897 1.252-2.88 1.658l-2.37.485-1.634-7.988 2.214-.453q1-.204 1.836-.127.836.07 1.513.433.68.356 1.146 1.065.465.704.673 1.724zm2.049-2.421l1.211 5.924-.907.186-1.211-5.925zm-.441-2.156l.219 1.07-.907.186-.22-1.07zm4.782 1.212q.243-.05.45-.058l.137.838q-.258.008-.441.045-.756.155-1.123.781-.363.62-.204 1.397l.68 3.328-.901.184-1.217-5.923.75-.154.304 1.046q.205-.565.618-.97t.947-.514zm4.912.193q-.49-.394-1.183-.253t-1.028.723q-.337.575-.24 1.438l3.127-.64q-.18-.88-.676-1.268zm.106 5.138q-1.29.264-2.204-.404-.908-.67-1.2-2.095-.28-1.378.263-2.378.542-1.005 1.712-1.262 1.1-.225 1.898.4.801.618 1.059 1.876.013.066.042.24l.051.247-4.066.832q.223 1.007.841 1.471.622.458 1.476.283.94-.192 1.783-.882l.29.7q-.79.736-1.945.972zm5.983-1.223q-1.307.267-2.221-.429-.907-.698-1.188-2.07-.277-1.383.292-2.394.575-1.018 1.876-1.284.46-.094.909-.068.455.025.742.158l-.106.753q-.701-.211-1.404-.067-.858.175-1.232.905-.369.728-.147 1.813.217 1.058.835 1.579.623.513 1.498.334.696-.142 1.348-.668l.26.695q-.5.546-1.462.743zm4.609-.96q-.875.179-1.33-.172-.454-.352-.67-1.298l-.728-3.56-.88.18-.084-.601.822-.247.03-1.419.59-.143.282 1.378 1.647-.337.137.669-1.648.337.695 3.397q.138.676.4.908t.758.133q.178-.037.756-.245l.182.705q-.619.245-.959.315zm1.774-6.648l1.212 5.925-.907.185-1.212-5.924zm-.44-2.155l.218 1.07-.907.185-.219-1.068zm3.403 4.65q.215 1.054.81 1.595.6.536 1.496.353.886-.181 1.204-.905.325-.725.106-1.793-.222-1.086-.797-1.616-.57-.536-1.484-.35-.886.182-1.22.915-.334.731-.115 1.801zm4.55-.947q.281 1.377-.278 2.386-.56 1.003-1.856 1.268-1.248.255-2.164-.458-.911-.712-1.189-2.068-.283-1.383.284-2.388.565-1.004 1.855-1.268 1.27-.26 2.168.45.899.706 1.18 2.078zm1.88 2.703l-1.211-5.924.756-.155.286.826q.262-.51.731-.882.474-.378 1.086-.503 1.025-.21 1.634.268.61.472.853 1.665l.758 3.705-.901.184q-.73-3.564-.787-3.817-.177-.751-.535-1.044-.352-.293-1.016-.157-.697.142-1.093.571-.396.43-.427.994.02.374.116.843l.662 3.24z" fill="#fff" aria-label="Resultant Direction"/></svg>